<svg xmlns="http://www.w3.org/2000/svg" xmlns:xlink="http://www.w3.org/1999/xlink" width="67" height="90" viewBox="0 0 67 90">
    <defs>
        <path id="a" d="M0 89.143h66.932V.553H0z"/>
    </defs>
    <g fill="none" fill-rule="evenodd">
        <path fill="#499FC9" d="M0 .858v31.854l22.31 16.56V.858z"/>
        <path fill="#E9F9FF" d="M22.31.858v48.414l11.156 8.28 11.155-8.28V.858z"/>
        <path fill="#EB4F52" d="M44.621.858v48.414l22.311-16.56V.858z"/>
        <g transform="translate(0 .303)">
            <path fill="#F4C247" d="M65.36 57.248c0 17.615-14.28 31.895-31.894 31.895-17.615 0-31.895-14.28-31.895-31.895 0-17.615 14.28-31.894 31.895-31.894 17.615 0 31.895 14.28 31.895 31.894z"/>
            <path fill="#FFD45A" d="M33.466 82.286c-13.806 0-25.037-11.232-25.037-25.037 0-13.806 11.23-25.037 25.037-25.037 13.806 0 25.038 11.23 25.038 25.037 0 13.805-11.232 25.037-25.038 25.037"/>
            <path fill="#E2AD37" d="M33.466 43.095l4.599 9.318 10.284 1.494-7.442 7.254 1.757 10.242-9.198-4.836-9.198 4.836 1.757-10.242-7.442-7.254 10.284-1.494z"/>
            <path fill="#D6A434" d="M33.466 43.095l-1.17 2.372 3.246 6.58 2.523.366z"/>
            <path fill="#E2AD37" d="M24.674 69.038l-.406 2.364 8.542-4.49-2.046-1.076z"/>
            <path fill="#D6A434" d="M45.345 53.47l-7.14 6.96 1.627 9.483 2.832 1.49-1.756-10.243 7.44-7.253z"/>
            <mask id="b" fill="#fff">
                <use xlink:href="#a"/>
            </mask>
            <path fill="#3E87AB" d="M0 6.32h22.31V.554H0z" mask="url(#b)"/>
            <path fill="#C6D3D9" d="M22.31 6.32h22.311V.554h-22.31z" mask="url(#b)"/>
            <path fill="#C74346" d="M44.621 6.32h22.31V.554h-22.31z" mask="url(#b)"/>
        </g>
    </g>
</svg>
