<svg xmlns="http://www.w3.org/2000/svg" xmlns:xlink="http://www.w3.org/1999/xlink" width="67" height="90" viewBox="0 0 67 90">
    <defs>
        <path id="a" d="M0 89.143h66.932V.553H0z"/>
    </defs>
    <g fill="none" fill-rule="evenodd">
        <path fill="#499FC9" d="M0 .858v31.854l22.31 16.56V.858z"/>
        <path fill="#E9F9FF" d="M22.31.858v48.414l11.156 8.28 11.155-8.28V.858z"/>
        <path fill="#EB4F52" d="M44.621.858v48.414l22.311-16.56V.858z"/>
        <g transform="translate(0 .303)">
            <path fill="#D1D1D1" d="M65.36 57.248c0 17.615-14.28 31.895-31.894 31.895-17.615 0-31.895-14.28-31.895-31.895 0-17.615 14.28-31.894 31.895-31.894 17.614 0 31.894 14.28 31.894 31.894z"/>
            <path fill="#E6E7E8" d="M33.466 82.286c-13.806 0-25.038-11.232-25.038-25.037 0-13.806 11.232-25.038 25.038-25.038 13.806 0 25.038 11.232 25.038 25.038 0 13.805-11.232 25.037-25.038 25.037"/>
            <path fill="#BBBDBF" d="M33.466 43.094l4.599 9.318 10.283 1.495-7.441 7.253 1.757 10.242-9.198-4.836-9.198 4.836 1.757-10.242-7.442-7.253 10.284-1.495z"/>
            <mask id="b" fill="#fff">
                <use xlink:href="#a"/>
            </mask>
            <path fill="#3E87AB" d="M0 6.32h22.31V.554H0z" mask="url(#b)"/>
            <path fill="#C6D3D9" d="M22.31 6.32h22.311V.554h-22.31z" mask="url(#b)"/>
            <path fill="#C74346" d="M44.621 6.32h22.31V.554h-22.31z" mask="url(#b)"/>
            <path fill="#B1B3B5" d="M33.466 43.094l-1.17 2.373 3.246 6.58 2.523.365z" mask="url(#b)"/>
            <path fill="#DADBDC" d="M39.832 69.913l2.832 1.49-2.832-1.49" mask="url(#b)"/>
            <path fill="#B1B3B5" d="M45.345 53.47l-7.14 6.96 1.627 9.483 2.832 1.49-1.757-10.243 7.441-7.253z" mask="url(#b)"/>
        </g>
    </g>
</svg>
