<svg xmlns="http://www.w3.org/2000/svg" xmlns:xlink="http://www.w3.org/1999/xlink" width="1440" height="900" viewBox="0 0 1440 900">
    <defs>
        <path id="a" d="M0 0h1440v900H0z"/>
    </defs>
    <g fill="none" fill-rule="evenodd" opacity=".3">
        <mask id="b" fill="#fff">
            <use xlink:href="#a"/>
        </mask>
        <g fill="#000" mask="url(#b)">
            <path d="M-401.592 729.968c3.232-4.72 6.47-9.44 9.714-14.154 1.745-2.534 3.488-5.07 5.239-7.602 3.666-5.3 3.1-4.46 10.415-13.105 9.169-10.838 20.807-21.944 34.487-28.18 14.996-6.837 30.837-12.455 46.188-18.601A11988.882 11988.882 0 0 1-206.257 613c24.685-9.655 49.213-19.7 74.494-27.986a14874.213 14874.213 0 0 1 46.346-15.109 17330.43 17330.43 0 0 1 94.58-30.354c62.55-19.884 125.22-39.455 187.953-58.854 62.69-19.384 126.073-36.84 189.284-54.743 126.96-35.958 253.965-71.788 380.614-108.653 125.891-36.643 251.517-74.104 377.169-111.416 63.292-18.795 126.39-38.14 189.223-58.176 62.245-19.849 123.834-41.24 185.83-61.694 22.138-7.305 47.231-4.652 70.412-4.055 36.25.933 68.107 19.904 82.26 50.531 14.41 31.182 6.196 64.979-18.612 89.795-15.37 15.375-30.647 33.344-51.568 42.417-15.276 6.626-30.827 12.775-46.264 19.081a7894.9 7894.9 0 0 1-89.579 35.942 10686.878 10686.878 0 0 1-208.698 79.766c-61.403 22.736-122.855 45.8-185.055 66.667-62.121 20.84-124.722 40.567-187.259 60.337-125.73 39.75-251.9 78.326-378.078 116.872-62.815 19.19-125.633 38.373-188.402 57.692-62.673 19.288-126.211 36.41-189.199 54.838-63.565 18.596-127.03 37.476-190.341 56.784-31.004 9.456-62.835 16.66-94.31 24.717-32.023 8.197-63.852 17.362-96.028 25.025-25.323 6.031-50.649 4.039-75.193-3.022-6.59-1.895-13.18-3.78-19.774-5.661-27.88-7.953-48.475-24.299-59.791-48.784-11.094-24.009-10.923-52.242 4.65-74.989" opacity=".4"/>
            <path d="M-238.672 439.253c19.48-12.879 37.196-25.291 60.328-31.776a3469.013 3469.013 0 0 0 45.34-13.045c30.216-8.916 60.206-18.152 90.698-26.088 60.349-15.703 120.34-32.761 180.056-50.723 120.17-36.148 239.199-75.943 358.158-115.86 118.959-39.919 238.002-79.438 357.828-116.685 119.624-37.184 236.483-82.574 353.71-126.573 59.305-22.257 119.586-41.73 180.15-60.277 29.459-9.022 59.026-17.692 88.736-25.85 30.066-8.257 60.06-16.706 90.94-21.191 20.498-2.979 39.39-6.564 60.037-2.04 11.727 2.57 22.93 8.826 33.959 13.529 20 8.528 31.702 32.626 34.392 52.662 2.144 9.581 1.715 19.163-1.287 28.744-3.423 12.212-9.598 22.815-18.526 31.81-6.392 8.052-11.694 13.609-20.024 20.049-13.703 10.594-30.171 15.76-46.096 22.29-14.48 5.936-29.048 10.988-43.866 16.013-29.699 10.072-59.194 20.74-88.53 31.83-58.932 22.28-116.717 47.204-175.158 70.683-116.568 46.836-234.055 92.794-352.98 133.305-59.364 20.221-119.252 38.892-178.667 58.98-59.235 20.025-118.301 40.545-177.344 61.13-118.581 41.345-237.087 82.968-356.662 121.37-59.95 19.253-120.167 37.697-180.75 54.863-29.698 8.416-59.391 17.228-89.673 23.272-30.942 6.176-61.96 12.206-93.094 17.336-8.685 1.43-20.235 3.757-29.062 3.973-9.846.24-20.813-2.253-30.527-3.705-3.078-.459-6.151-.953-9.226-1.437-7.19-1.134-14.375-2.3-21.558-3.485l23.708 3.187c-24.694.84-51.582-10.068-66.053-25.842-13.43-14.64-21.703-31.108-24.359-50.89-2.537-18.894-.124-40.008 10.51-56.515l13.849-17.938c11.05-10.984 24.079-18.581 39.083-22.793-3.838 1.689-10.938 4.688-18.04 7.687z" opacity=".2"/>
            <path d="M-129.873 315.571c4.442-6.056 8.668-13.11 14.273-18.035 9.057-7.96 19.751-10.385 30.999-13.467A10262.947 10262.947 0 0 0 528.373 95.33c53.786-18.42 107.428-37.272 161.018-56.253 53.54-18.965 107.35-37.217 159.071-60.74 103.827-47.224 205.956-98.054 309.768-145.252a10273.925 10273.925 0 0 0 347.228-165.776c12.693-6.352 30.014-3.798 37.17 9.745 6.445 12.2 3.893 30.523-9.746 37.167a10329.41 10329.41 0 0 1-311.309 145.3c-53.024 23.68-106.256 46.28-160.399 67.288a10209.268 10209.268 0 0 1-160.6 60.767c-26.808 9.887-54.235 18.679-80.697 29.444-26.014 10.583-51.549 22.53-77.356 33.62-53.198 22.86-106.587 45.239-160.289 66.896a10336.696 10336.696 0 0 1-319.775 122.847A10310.82 10310.82 0 0 1-62.418 352.945c-8.577 2.812-18.189 7.153-27.308 7.053-8.845-.097-16.54-3.206-24.617-6.257-14.059-5.31-26.342-23.427-15.53-38.17M-327.34 879.535a519.172 519.172 0 0 1 5.94-11.122l-9.098 21.576c6.616-27.09 26.19-48.627 50.124-61.778 7.753-4.26 15.56-8.412 23.47-12.374 20.77-10.4 41.897-20.263 63.994-27.472 32.321-10.543 64.894-20.34 97.383-30.35a36716.49 36716.49 0 0 1 202.508-61.76c66.893-20.19 135.023-36.101 202.822-52.964a36752.984 36752.984 0 0 1 615.912-147.557c136.862-31.545 272.039-69.931 407.922-105.468a36762.253 36762.253 0 0 1 304.524-78.248c33.99-8.578 68.625-14.012 103.132-20.136 21.831-3.875 43.53-7.086 65.654-8.764 25.611-1.943 53.578 20.37 59.208 45.11a73.25 73.25 0 0 1 0 32.67c-2.927 12.864-15.635 31.365-28.217 36.723-68.064 28.983-139.735 47.84-211.425 65.504A36655.643 36655.643 0 0 0 1218 566.275c-67.606 17.484-135.705 33.823-202.432 54.431a36759.074 36759.074 0 0 0-400.137 126.08A36816.38 36816.38 0 0 0 214.635 878.13c-66.137 22.094-134.26 39.238-201.196 58.812-65.12 19.044-129.914 39.65-195.67 56.144a612.79 612.79 0 0 0-23.9 6.491c-7.525 2.215-13.133 3.436-21.44 4.553-21.8 2.931-42.084-1.65-61.45-12.145l21.56 9.106a442.44 442.44 0 0 0-11.423-2.365c-24.263-4.684-43.409-25.317-52.544-46.978-10.34-24.524-8.107-48.698 4.087-72.213" opacity=".3"/>
            <path d="M37.447 1008.93c14.67-8.982 29.404-17.864 43.896-27.133 7.25-4.637 14.499-9.275 21.747-13.913 3.532-2.261 7.107-5.17 10.872-6.96 5.378-2.555-4.192 2.648-3.901 3.569-.557-1.757 12.387-9.065 14.875-10.357 31.133-16.163 63.156-30.801 94.654-46.246 31.055-15.226 61.84-30.823 93.642-44.424a17939.918 17939.918 0 0 0 97.31-41.943c126.659-55.057 252.528-111.91 376.999-171.763 118.655-57.055 236.856-115.037 355.952-171.18 124.465-58.672 250.06-115.137 378.039-165.758 60.914-24.093 122.342-47.493 185.017-66.613 31.593-9.64 63.346-18.75 95.26-27.262a2563.872 2563.872 0 0 1 47.197-12.113c22.634-5.578 45.363-8.884 68.514-11.677 14.935-1.802 28.35-4.134 43.605.804 12.817 4.15 22.967 9.877 33.553 17.482 14.915 10.714 28.828 24.26 33.113 43.077 4.361 19.153 2.428 38.138-7.263 55.542-1.922 3.45-3.713 7.027-5.756 10.406-3.512 5.813-20.236 24.803-15.076 19.64-11.632 11.636-23.867 16.807-38.571 22.487-10.858 4.194-21.898 7.99-32.836 11.97-20.585 7.49-42.592 11.9-63.668 17.922-41.252 11.788-82.21 24.6-122.877 38.271-83.042 27.918-165.794 55.881-247.426 87.797-45.99 17.98-91.69 36.699-137.186 55.894l21.488-9.071c-151.204 63.887-299.639 133.97-450.075 199.584-162.604 70.92-326.86 137.741-492.476 201.292-45.183 17.338-90.136 34.583-136.323 49.05-23.59 7.39-47.19 14.746-70.799 22.08-26.627 8.274-54.424 19.994-82.261 22.209l14.781-1.987c-31.688 5.904-63.319 11.946-94.893 18.436-18.617 3.826-36.99-3.872-44.592-21.893-7.342-17.403-.73-37.302 15.465-47.219" opacity=".3"/>
            <path d="M658.145 946.288a314.78 314.78 0 0 1 10.98-18.803c5.509-8.731 11.272-17.733 18.578-24.959 8.19-8.098 17.846-13.85 27.57-19.65 23.363-13.932 46.579-27.909 72.102-37.574 36.637-13.873 73.18-27.945 109.506-42.615l-27.876 11.753c13.198-5.567 25.76-11.39 39.353-15.44a4805.392 4805.392 0 0 0 36.899-11.157 4954.365 4954.365 0 0 0 50.585-15.816 5414.797 5414.797 0 0 0 98.4-32.397c66.189-22.486 131.96-46.182 197.389-70.783 32.275-12.136 65.102-22.836 97.625-34.295a9878.816 9878.816 0 0 0 99.635-35.73c64.788-23.614 129.352-47.833 193.792-72.38 18.51-7.052 37.157-15.867 56.286-20.996 18.489-4.956 36.977-9.918 55.458-14.9 18.477-4.98 36.961-9.916 55.473-14.76 4.641-1.216 9.24-2.514 13.95-3.379 20.297-3.726 25.223-2.726 45.656.28 1.881.276 3.762.557 5.643.837 3.76.559 7.521 1.116 11.283 1.674 9.671 1.434 16.066 3.751 25.813 8.383l-31.007-8.38c10.46.115 18.086 2.103 27.128 5.617 12.429 4.833 24.511 11.472 31.067 23.87 6.057 11.453 10.48 27.46 5.24 40.02-.777 1.863-1.553 3.727-2.331 5.589-5.185 12.412-8.34 19.74-17.663 29.688l15.8-27.086c-2.745 8.37-6.33 15.795-11.326 22.878l-7.841 11.117c-5.92 8.39-11.69 17.438-19.137 24.386-8.406 7.841-18.265 13.865-28.013 19.84-17.691 10.842-35.455 21.556-53.25 32.226-17.262 10.35-34.372 22.458-52.638 30.904a21809.846 21809.846 0 0 1-56.787 26.162c-74.643 34.254-149.506 68.036-224.782 100.88-46.258 20.182-92.705 39.92-139.236 59.462-38.163 16.028-77.29 29.851-116.209 43.935-77.79 28.152-156.11 54.859-235.053 79.606a4857.549 4857.549 0 0 1-58.736 18.007c-20.114 6.027-40.684 9.473-61.334 13.232a4391.456 4391.456 0 0 1-60.83 10.633c-18.708 3.134-37.278 6.02-56.267 5.824-9.605-.099-19.21-.248-28.816-.29-4.97-.022-9.94-.015-14.91.043-6.178.072-10.562-.562-17.347-1.473-8.472-1.137-8.595-.707-13.55-2.205-7.235-2.188-15.137-6.372-22.088-9.316 6.74 2.842 13.478 5.684 20.218 8.524-9.065-3.795-18.215-7.35-27.54-10.458-18.636-6.21-32.302-17.525-39.97-35.681-7.786-18.431-6.389-37.205 3.108-54.847" opacity=".4"/>
            <path d="M-384.28 141.746c88.324-86.8 179.41-170.51 271.127-253.678a7285.013 7285.013 0 0 1 78.158-69.845c13.05-14.061 28.503-23.999 46.365-29.814 17.168-9.028 35.67-13.168 55.506-12.419 19.835-.749 38.337 3.391 55.506 12.419 17.861 5.815 33.317 15.753 46.365 29.814l22.528 29.183c7.996 13.798 13.542 28.266 16.662 43.396 45.007-15.34 90.264-29.984 135.265-45.292 43.2-14.696 86.193-30.05 128.49-47.18 27.682-12.187 55.036-25.193 82.22-38.403 35.515-17.26 69.811-36.876 103.572-57.328a3317.02 3317.02 0 0 0 27.826-17.07c4.783-2.962 9.563-5.933 14.34-8.908 2.546-1.585 5.099-3.162 7.638-4.76.952-.599 1.893-1.225 2.852-1.808 5.92-3.955 12.44-6.782 19.56-8.48a99.606 99.606 0 0 1 17.983-7.666c7.12-3.078 12.883-5.57 18.646-8.06a551.168 551.168 0 0 0 8.61-3.797 148.433 148.433 0 0 1 18.113-7.734c11.143-6.47 23.162-9.723 36.059-9.763 9.54-2.566 19.082-3.197 28.622-1.896 13.696-1.442 27.392-.028 41.089 4.27l31.593 13.344c15.413 8.32 27.783 19.683 37.109 34.094 8.195 8.259 13.865 17.993 17.006 29.205 8.281 15.776 12.078 32.777 11.391 51.002l-4.724 35.19a137.009 137.009 0 0 1-6.808 18.873c-2.796 9.69-6.84 19.135-12.907 28.553l-11.171 14.472c-3.319 6.258-7.622 11.586-12.91 15.983-2.749 2.667-5.473 5.36-8.21 8.04l-16.419 16.078-14.777 14.47c-2.75 2.693-5.358 5.474-8.017 8.233-10.083 10.457-25.962 20.316-38.908 29.632-24.142 17.37-48.334 34.683-72.999 51.307-23.957 16.147-48.375 31.61-73.512 45.857-35.835 20.308-73.727 35.648-111.683 51.574-101.256 42.488-207.115 72.058-311.59 105.296-52.012 16.546-103.457 34.4-154.12 54.61-96.05 42.942-189.237 92.653-288.938 127.014-26.38 9.093-53.477 17.473-80.943 22.584l-41.412 5.569c-21.448.81-41.454-3.666-60.019-13.427-13.195-3.704-24.652-10.387-34.37-20.05-16.959-10.993-30.333-25.574-40.122-43.744l-15.704-37.244-5.565-41.448c-.809-21.467 3.663-41.49 13.417-60.07 6.282-19.33 17.019-36.055 32.21-50.178z" opacity=".2"/>
            <path d="M-327.434-115.093l10.149-18.5c12.017-21.907 27.41-38.964 45.32-54.977 18.063-16.15 35.985-31.763 56.602-45.189 6.955-4.528 14.599-8.24 21.828-12.32l85.324-48.164c21.915-12.37 46.056-20.273 69.276-29.92 7.634-3.174 15.269-6.346 22.903-9.519l45.806-19.034c29.344-12.194 59.775-21.57 89.889-31.7l25.484-8.575c12.74-4.286 21.612-4.835 36.675-6.858 12.432-1.67 23.86-3.269 36.08-4.15 23.54-1.698 42.952-2.013 68.037 5.444 6.737 2.002 13.37 4.539 20.025 6.799 19.682 4.677 36.826 13.696 51.434 27.06 16.464 10.66 29.45 24.798 38.953 42.416l15.246 36.114c7.204 26.793 7.204 53.587 0 80.38l-5.069 16.117c-11.825 37.596-21.287 51.494-46.298 81.058-2.81 3.323-5.643 6.626-8.465 9.938-4.698 5.515-9.287 11.15-14.2 16.472-14.024 15.186-38.247 29.523-56.744 42.52L240.6-11.422C227.238-2.033 214.13 8 200.156 16.453L116.324 67.17c-13.55 8.198-29.111 13.802-43.546 20.313l-44.902 20.251-25.062 11.303c-23.952 10.803-47.261 22.888-72.996 28.317-24.736 5.217-52.05 13.062-76.428 11.427-8.473-.567-17.03-2.161-25.456-3.23-32.478-.1-62.75-8.286-90.816-24.556-27.038-15.99-48.556-37.5-64.552-64.527C-343.71 38.414-351.9 8.155-352-24.313c.1-32.466 8.29-62.726 24.566-90.78M1160.521 1078.2l9.287-22.028c8.19-13.858 19.207-24.886 33.049-33.084 45.65-35.105 93.147-67.78 142.298-97.78 43.009-26.253 87.733-49.344 133.51-70.306 1.527-.775 3.055-1.55 4.583-2.322a1577.988 1577.988 0 0 1 25.925-19.176c4.217-3.05 9.335-3.976 14.362-3.365 16.668-8.936 33.673-17.274 50.852-25.136 7.521-4.793 15.641-7.387 24.361-7.783 8.71-1.952 17.42-1.561 26.129 1.171 9.362 2.581 19.2 8.043 27.132 15.169.373.074.749.144 1.122.217 13.803 3.876 25.788 10.868 35.955 20.976 7.946 7.389 13.562 16.138 16.848 26.25 5.102 9.72 7.44 20.196 7.017 31.426-.045 14.723-3.753 28.444-11.123 41.167a1274.1 1274.1 0 0 0-4.854 6.469c-5.052 6.782-10.83 15.91-15.873 20.665l-1.482 1.182-18.164 14.048c-6.36 3.835-13.201 7.002-19.75 10.513-12.687 6.8-25.286 13.17-38.4 19.108a1592.38 1592.38 0 0 0-77.54 37.667c-50.993 26.498-101.409 54.43-150.003 85.136-27.175 17.172-53.816 35.182-79.913 53.957-10.574 6.74-21.99 10.387-34.25 10.943-12.246 2.745-24.49 2.196-36.735-1.646-11.989-2.853-22.431-8.356-31.328-16.506-10.03-6.502-17.94-15.128-23.728-25.873-11.296-21.403-16.959-47.33-9.287-71.06" opacity=".3"/>
        </g>
    </g>
</svg>
