<svg xmlns="http://www.w3.org/2000/svg" xmlns:xlink="http://www.w3.org/1999/xlink" width="1440" height="700" viewBox="0 0 1440 700">
    <defs>
        <path id="a" d="M0 0h1440v700H0z"/>
    </defs>
    <g fill="none" fill-rule="evenodd" opacity=".75">
        <mask id="b" fill="#fff">
            <use xlink:href="#a"/>
        </mask>
        <g fill="#FEE8D2" mask="url(#b)">
            <path d="M1722.804 617.775a6509.034 6509.034 0 0 0-8.515-12.406c-1.529-2.22-3.057-4.444-4.592-6.662-3.214-4.646-2.718-3.909-9.13-11.486-8.037-9.498-18.238-19.232-30.23-24.698-13.145-5.991-27.031-10.915-40.488-16.302a10510.425 10510.425 0 0 0-78.271-30.961c-21.639-8.462-43.14-17.265-65.3-24.528a13040.71 13040.71 0 0 0-40.626-13.241 15193.453 15193.453 0 0 0-82.906-26.603c-54.832-17.427-109.767-34.58-164.757-51.582-54.952-16.988-110.513-32.287-165.923-47.979-111.29-31.514-222.62-62.917-333.638-95.226-110.353-32.115-220.475-64.947-330.618-97.648-55.48-16.473-110.79-33.427-165.87-50.987C147.379 90.07 93.39 71.322 39.047 53.396 19.64 46.992-2.356 49.318-22.676 49.84c-31.776.818-59.701 17.445-72.107 44.287-12.632 27.329-5.431 56.95 16.314 78.7 13.473 13.474 26.865 29.223 45.204 37.175 13.39 5.807 27.022 11.196 40.554 16.723a6921.191 6921.191 0 0 0 78.523 31.5 9368.89 9368.89 0 0 0 182.941 69.91c53.825 19.926 107.692 40.14 162.215 58.429 54.454 18.265 109.329 35.553 164.147 52.88 110.213 34.84 220.811 68.647 331.416 102.43 55.062 16.82 110.127 33.632 165.15 50.563 54.937 16.905 110.633 31.911 165.847 48.062 55.72 16.298 111.353 32.845 166.85 49.767 27.177 8.287 55.079 14.6 82.669 21.663 28.071 7.184 55.972 15.216 84.177 21.933 22.197 5.285 44.397 3.54 65.913-2.649 5.775-1.66 11.553-3.313 17.333-4.962 24.44-6.97 42.492-21.296 52.411-42.756 9.725-21.041 9.575-45.785-4.077-65.721" opacity=".4"/>
            <path d="M1574.756 364.105c-17.076-11.281-32.605-22.154-52.882-27.834a3042.446 3042.446 0 0 1-39.743-11.427c-26.487-7.81-52.775-15.901-79.504-22.852-52.9-13.755-105.487-28.698-157.832-44.432-105.337-31.664-209.675-66.523-313.951-101.49-104.276-34.966-208.626-69.583-313.662-102.21C512.323 21.288 409.887-18.472 307.129-57.013c-51.985-19.497-104.825-36.554-157.914-52.801-25.823-7.903-51.741-15.497-77.784-22.644-26.355-7.232-52.647-14.633-79.715-18.562-17.968-2.61-34.529-5.75-52.627-1.787-10.279 2.25-20.1 7.73-29.767 11.85-17.531 7.47-27.789 28.58-30.147 46.13-1.88 8.394-1.504 16.787 1.128 25.18 3 10.697 8.413 19.985 16.239 27.864 5.603 7.053 10.251 11.92 17.553 17.562 12.011 9.28 26.447 13.805 40.406 19.525C-32.806.504-20.036 4.929-7.047 9.33c26.033 8.823 51.888 18.168 77.602 27.882 51.659 19.516 102.312 41.349 153.539 61.916 102.181 41.026 205.166 81.284 309.413 116.77 52.037 17.713 104.533 34.068 156.614 51.664 51.924 17.54 103.7 35.516 155.455 53.548 103.945 36.216 207.824 72.676 312.64 106.315 52.551 16.865 105.335 33.02 158.44 48.058 26.033 7.372 52.061 15.09 78.605 20.385 27.123 5.41 54.312 10.692 81.604 15.186 7.613 1.253 17.737 3.29 25.475 3.48 8.631.21 18.244-1.973 26.759-3.245 2.698-.402 5.392-.835 8.087-1.26 6.303-.992 12.601-2.013 18.897-3.052-6.927.93-13.854 1.86-20.781 2.792 21.646.735 45.215-8.82 57.9-22.637 11.772-12.824 19.024-27.25 21.352-44.578 2.224-16.55.109-35.045-9.213-49.504l-12.139-15.713c-9.687-9.622-21.107-16.277-34.259-19.966 3.364 1.479 9.588 4.106 15.813 6.733z" opacity=".6"/>
            <path d="M1627.78 508.73l-7.99-6.014c-1.342-1.009-3.473-.215-4.25 1.114-.93 1.59-.23 3.237 1.114 4.25l7.99 6.012c1.341 1.01 3.472.215 4.25-1.114.93-1.59.23-3.237-1.115-4.249M1477.128 289.513c-3.893-5.308-7.596-11.49-12.508-15.807-7.938-6.976-17.31-9.102-27.167-11.803a8993.873 8993.873 0 0 1-537.2-165.42C853.116 80.34 806.105 63.816 759.14 47.18c-46.92-16.622-94.08-32.619-139.407-53.236-90.992-41.389-180.496-85.939-271.475-127.305A9003.577 9003.577 0 0 1 43.954-278.656c-11.124-5.567-26.304-3.328-32.575 8.541-5.649 10.693-3.412 26.752 8.541 32.575a9052.189 9052.189 0 0 0 272.825 127.348c46.47 20.754 93.121 40.562 140.571 58.975a8946.772 8946.772 0 0 0 140.747 53.26c23.494 8.664 47.531 16.37 70.721 25.805 22.8 9.276 45.177 19.746 67.794 29.466 46.622 20.036 93.411 39.65 140.474 58.631a9058.473 9058.473 0 0 0 280.245 107.67 9035.751 9035.751 0 0 0 284.715 98.654c7.517 2.465 15.94 6.27 23.932 6.182 7.752-.085 14.496-2.81 21.574-5.484 12.321-4.655 23.086-20.533 13.61-33.454M1672.534 743.579a454.727 454.727 0 0 0-5.208-9.743l7.976 18.9c-5.8-23.73-22.96-42.597-43.941-54.118-6.797-3.732-13.64-7.37-20.575-10.84-18.207-9.111-36.729-17.751-56.1-24.066-28.334-9.236-56.889-17.818-85.37-26.588a32204.539 32204.539 0 0 0-177.528-54.103c-58.641-17.687-118.367-31.625-177.803-46.397A32237.83 32237.83 0 0 0 574.049 407.36c-119.979-27.634-238.481-61.261-357.602-92.392a32246.051 32246.051 0 0 0-266.96-68.547c-29.797-7.515-60.16-12.275-90.41-17.64-19.138-3.394-38.16-6.207-57.555-7.677-22.452-1.702-46.969 17.844-51.905 39.518a64.124 64.124 0 0 0 0 28.619c2.566 11.269 13.707 27.476 24.737 32.17 59.668 25.39 122.498 41.909 185.344 57.383a32152.62 32152.62 0 0 1 358.121 90.362c59.267 15.316 118.965 29.63 177.461 47.683a32241.454 32241.454 0 0 1 350.778 110.449 32291.024 32291.024 0 0 1 351.356 115.06c57.979 19.355 117.699 34.374 176.377 51.52 57.088 16.684 113.889 34.736 171.533 49.184a537.506 537.506 0 0 1 20.952 5.687c6.597 1.94 11.513 3.01 18.795 3.988 19.112 2.568 36.893-1.445 53.871-10.64l-18.901 7.978c3.33-.734 6.666-1.426 10.014-2.072 21.27-4.103 38.054-22.178 46.062-41.154 9.065-21.483 7.107-42.66-3.583-63.26" opacity=".3"/>
            <path d="M1474.173 935.785c-12.856-7.87-25.768-15.65-38.468-23.77l-19.058-12.188c-3.095-1.981-6.228-4.53-9.528-6.097-4.713-2.24 3.674 2.319 3.419 3.126.488-1.54-10.855-7.941-13.036-9.073-27.283-14.16-55.346-26.983-82.95-40.513-27.215-13.34-54.193-27.002-82.063-38.917a15724.846 15724.846 0 0 1-85.278-36.744c-110.997-48.232-221.302-98.037-330.382-150.47-103.984-49.983-207.57-100.777-311.94-149.96-109.074-51.4-219.14-100.864-331.293-145.21-53.382-21.107-107.214-41.606-162.14-58.356-27.686-8.444-55.513-16.426-83.481-23.882a2247.508 2247.508 0 0 0-41.361-10.612c-19.835-4.886-39.754-7.782-60.042-10.23-13.088-1.578-24.845-3.621-38.213.705-11.232 3.635-20.127 8.653-29.404 15.315-13.071 9.386-25.264 21.252-29.02 37.737-3.821 16.779-2.127 33.41 6.366 48.657 1.684 3.023 3.254 6.156 5.044 9.116 3.078 5.092 17.734 21.728 13.212 17.206 10.194 10.193 20.916 14.723 33.802 19.699 9.515 3.674 19.19 6.999 28.776 10.486 18.039 6.562 37.325 10.424 55.795 15.7 36.15 10.327 72.045 21.55 107.683 33.527 72.774 24.457 145.294 48.954 216.832 76.913 40.304 15.752 80.352 32.15 120.223 48.966l-18.831-7.947C431.344 604.936 561.425 666.33 693.26 723.812c142.498 62.129 286.444 120.666 431.58 176.339 39.597 15.189 78.992 30.296 119.468 42.97a27830.792 27830.792 0 0 0 62.044 19.343c23.335 7.248 47.695 17.515 72.09 19.455l-12.954-1.74c27.77 5.172 55.49 10.465 83.16 16.15 16.315 3.352 32.416-3.392 39.078-19.18 6.434-15.244.639-32.677-13.553-41.364" opacity=".4"/>
            <path d="M-123.88 495.127c2.188.122 4.365.302 6.545.53-1.84-.192-.723-.113.456.095 1.095.193 2.19.382 3.281.6 4.597.918 9.13 2.158 13.555 3.704 8.191 2.86 15.62 5.75 23.108 10.22 4.395 2.624 10.326 1.387 13.354-2.666 3.266-4.371 2.576-9.512-.809-13.592-14.255-17.182-33.179-28.167-54.812-33.458-10.285-2.515-20.533 3.998-21.96 14.63-1.456 10.823 6.667 19.346 17.282 19.937" opacity=".2"/>
            <path d="M892.31 810.681a276.107 276.107 0 0 0-9.62-16.489c-4.828-7.657-9.878-15.55-16.279-21.888-7.175-7.102-15.636-12.146-24.156-17.232-20.47-12.218-40.81-24.475-63.174-32.95-32.1-12.167-64.119-24.507-95.946-37.372l24.424 10.307c-11.564-4.882-22.57-9.988-34.48-13.54a4208.018 4208.018 0 0 1-32.33-9.784 4338.283 4338.283 0 0 1-44.322-13.87 4741.337 4741.337 0 0 1-86.215-28.41c-57.993-19.72-115.62-40.5-172.947-62.074-28.279-10.643-57.04-20.026-85.537-30.075a8650.567 8650.567 0 0 1-87.298-31.334c-56.765-20.708-113.335-41.947-169.795-63.474-16.219-6.184-32.556-13.914-49.317-18.412a35505.625 35505.625 0 0 1-48.59-13.066 6857.868 6857.868 0 0 0-48.605-12.945c-4.066-1.066-8.095-2.204-12.223-2.962-17.783-3.268-22.099-2.39-40.002.245-1.648.242-3.296.49-4.944.734-3.295.49-6.59.98-9.886 1.468-8.474 1.258-14.077 3.29-22.617 7.352l27.168-7.349c-9.165.101-15.847 1.844-23.769 4.926-10.89 4.238-21.476 10.06-27.22 20.932-5.307 10.044-9.183 24.081-4.592 35.096.681 1.634 1.361 3.268 2.043 4.901 4.543 10.885 7.308 17.311 15.476 26.035l-13.843-23.753c2.404 7.34 5.546 13.852 9.923 20.063l6.87 9.75c5.187 7.357 10.243 15.291 16.767 21.384 7.365 6.877 16.004 12.16 24.545 17.4 15.5 9.507 31.064 18.903 46.656 28.26 15.124 9.077 30.116 19.694 46.12 27.101A19102.66 19102.66 0 0 0-65.65 612.6c65.401 30.04 130.994 59.664 196.95 88.466 40.53 17.7 81.224 35.008 121.994 52.146 33.437 14.056 67.72 26.178 101.82 38.53 68.156 24.687 136.78 48.107 205.947 69.81a4253.28 4253.28 0 0 0 51.463 15.791c17.623 5.285 35.646 8.307 53.74 11.603a3844.471 3844.471 0 0 0 53.297 9.325c16.391 2.748 32.662 5.28 49.3 5.107 8.415-.086 16.83-.217 25.247-.254 4.355-.019 8.71-.013 13.064.038 5.413.063 9.254-.493 15.2-1.292 7.422-.997 7.53-.62 11.872-1.934 6.338-1.918 13.262-5.588 19.352-8.169l-17.714 7.475c7.942-3.328 15.96-6.445 24.13-9.17 16.328-5.448 28.302-15.37 35.021-31.292 6.821-16.163 5.597-32.627-2.724-48.098M1710.56 136.507c-77.425-76.023-157.27-149.339-237.669-222.182a6384.209 6384.209 0 0 0-68.513-61.173c-11.439-12.315-24.986-21.019-40.643-26.112-15.05-7.907-31.269-11.533-48.657-10.877-17.387-.656-33.606 2.97-48.656 10.877-15.657 5.093-29.205 13.797-40.643 26.112l-19.748 25.56c-7.009 12.085-11.87 24.756-14.606 38.008-39.453-13.435-79.125-26.26-118.573-39.669-37.868-12.87-75.556-26.318-112.633-41.322-24.266-10.674-48.245-22.065-72.074-33.635-31.132-15.116-61.196-32.297-90.79-50.21a2908.167 2908.167 0 0 1-24.393-14.95 6256.87 6256.87 0 0 1-12.57-7.802c-2.232-1.389-4.47-2.77-6.696-4.17-.834-.524-1.659-1.072-2.5-1.583-5.189-3.464-10.904-5.94-17.146-7.427a87.355 87.355 0 0 0-15.764-6.714l-16.345-7.06a483.379 483.379 0 0 1-7.547-3.325 130.176 130.176 0 0 0-15.878-6.774c-9.768-5.666-20.304-8.516-31.609-8.55-8.363-2.248-16.727-2.8-25.09-1.66-12.006-1.264-24.012-.026-36.018 3.74-9.232 3.894-18.464 7.79-27.695 11.686-13.51 7.286-24.354 17.24-32.529 29.861-7.184 7.233-12.154 15.76-14.908 25.58-7.259 13.816-10.587 28.706-9.985 44.668l4.141 30.821a119.93 119.93 0 0 0 5.968 16.53c2.451 8.486 5.996 16.76 11.314 25.008 3.265 4.225 6.53 8.45 9.793 12.675 2.91 5.481 6.681 10.147 11.317 13.998 2.41 2.336 4.797 4.695 7.196 7.042l14.393 14.082 12.954 12.674c2.411 2.358 4.696 4.794 7.027 7.21 8.84 9.16 22.758 17.794 34.107 25.953 21.163 15.214 42.37 30.377 63.99 44.937 21.001 14.142 42.406 27.685 64.441 40.163 31.412 17.787 64.628 31.222 97.9 45.171 88.761 37.212 181.556 63.111 273.14 92.222 45.592 14.492 90.69 30.13 135.1 47.83 84.197 37.61 165.884 81.15 253.281 111.244 23.125 7.964 46.878 15.303 70.954 19.78l36.302 4.877c18.801.71 36.338-3.21 52.612-11.76 11.567-3.244 21.61-9.097 30.13-17.56 14.865-9.628 26.59-22.399 35.17-38.313 4.59-10.873 9.177-21.747 13.766-32.62l4.878-36.302c.71-18.8-3.21-36.338-11.76-52.612-5.508-16.929-14.92-31.578-28.236-43.947z" opacity=".4"/>
            <path d="M1660.184-87.916l-8.89-16.214c-10.529-19.2-24.014-34.15-39.705-48.184-15.825-14.154-31.526-27.838-49.588-39.605-6.093-3.969-12.79-7.222-19.123-10.798-24.917-14.07-49.834-28.14-74.75-42.212-19.2-10.84-40.35-17.768-60.692-26.224-6.688-2.78-13.377-5.56-20.065-8.342-13.377-5.56-26.753-11.12-40.13-16.682-25.708-10.687-52.368-18.904-78.75-27.783l-22.326-7.515c-11.16-3.757-18.934-4.238-32.13-6.01-10.892-1.465-20.904-2.866-31.61-3.638-20.623-1.488-37.629-1.764-59.605 4.771-5.902 1.755-11.713 3.978-17.544 5.96-17.243 4.098-32.262 12.003-45.06 23.715-14.424 9.343-25.8 21.734-34.126 37.175l-13.357 31.652c-6.31 23.482-6.31 46.965 0 70.447l4.441 14.126c10.36 32.95 18.65 45.131 40.561 71.042 2.462 2.912 4.944 5.807 7.416 8.71 4.116 4.833 8.136 9.772 12.441 14.436 12.285 13.31 33.507 25.875 49.712 37.266l35.236 24.767c11.706 8.23 23.19 17.022 35.432 24.431l73.444 44.45c11.871 7.184 25.504 12.096 38.15 17.802l39.338 17.75c7.32 3.301 14.638 6.603 21.956 9.905 20.984 9.468 41.405 20.06 63.951 24.818 21.67 4.572 45.6 11.448 66.957 10.015 7.423-.497 14.92-1.894 22.301-2.83 28.454-.089 54.975-7.263 79.562-21.523 23.688-14.014 42.54-32.865 56.553-56.553 14.26-24.587 21.434-51.107 21.522-79.562-.088-28.455-7.262-54.976-21.522-79.563M214.184 757.084l-8.89-16.214c-10.529-19.2-24.014-34.15-39.705-48.184-15.825-14.154-31.526-27.838-49.588-39.605-6.093-3.969-12.79-7.222-19.123-10.798-24.917-14.07-49.834-28.14-74.75-42.212-19.2-10.84-40.35-17.768-60.692-26.224-6.688-2.78-13.377-5.56-20.065-8.342-13.377-5.56-26.753-11.12-40.13-16.682-25.708-10.687-52.368-18.904-78.75-27.783l-22.326-7.515c-11.16-3.757-18.934-4.238-32.13-6.01-10.892-1.465-20.904-2.866-31.61-3.638-20.623-1.488-37.629-1.764-59.605 4.771-5.902 1.755-11.713 3.978-17.544 5.96-17.243 4.098-32.262 12.003-45.06 23.715-14.424 9.343-25.8 21.734-34.126 37.175l-13.357 31.652c-6.31 23.482-6.31 46.965 0 70.447l4.441 14.126c10.36 32.95 18.65 45.131 40.561 71.042 2.462 2.912 4.944 5.807 7.416 8.71 4.116 4.833 8.136 9.772 12.441 14.436 12.285 13.31 33.507 25.875 49.712 37.266l35.236 24.767c11.706 8.23 23.19 17.022 35.432 24.431l73.444 44.45c11.871 7.184 25.504 12.096 38.15 17.802l39.338 17.75c7.32 3.301 14.638 6.603 21.956 9.905 20.984 9.468 41.405 20.06 63.951 24.818 21.67 4.572 45.6 11.448 66.957 10.015 7.423-.497 14.92-1.894 22.301-2.83 28.454-.089 54.975-7.263 79.562-21.523 23.688-14.014 42.54-32.865 56.553-56.553 14.26-24.587 21.434-51.107 21.522-79.562-.088-28.455-7.262-54.976-21.522-79.563" opacity=".3"/>
            <path d="M356.555 957.238l-8.141-19.29c-7.18-12.135-16.836-21.792-28.97-28.97-40.017-30.742-81.652-59.356-124.737-85.627-37.701-22.989-76.906-43.21-117.034-61.566-1.338-.679-2.677-1.358-4.017-2.034A1383.203 1383.203 0 0 0 50.93 742.96c-3.697-2.67-8.183-3.482-12.59-2.947-14.611-7.825-29.517-15.126-44.576-22.01-6.593-4.198-13.711-6.47-21.355-6.817-7.635-1.709-15.27-1.367-22.904 1.026-8.207 2.26-16.831 7.043-23.784 13.283-.327.065-.656.126-.983.19-12.1 3.394-22.606 9.517-31.518 18.37-6.965 6.47-11.888 14.131-14.77 22.986-4.471 8.512-6.521 17.685-6.15 27.52.04 12.892 3.29 24.908 9.75 36.05 1.425 1.883 2.844 3.771 4.256 5.664 4.428 5.94 9.493 13.933 13.914 18.096l1.299 1.035 15.922 12.302c5.576 3.358 11.572 6.132 17.312 9.206 11.122 5.955 22.166 11.534 33.662 16.733a1396.463 1396.463 0 0 1 67.97 32.985c44.7 23.204 88.894 47.664 131.49 74.553a1406.765 1406.765 0 0 1 70.052 47.25c9.269 5.902 19.277 9.096 30.024 9.583 10.734 2.404 21.467 1.923 32.2-1.442 10.51-2.498 19.664-7.317 27.463-14.454 8.792-5.694 15.725-13.247 20.799-22.657 9.902-18.742 14.866-41.446 8.14-62.226" opacity=".3"/>
        </g>
    </g>
</svg>
