<svg xmlns="http://www.w3.org/2000/svg" xmlns:xlink="http://www.w3.org/1999/xlink" width="201" height="200" viewBox="0 0 201 200">
    <defs>
        <path id="a" d="M.172 100c0 55.14 43.518 99.839 97.201 99.839 53.682 0 97.2-44.7 97.2-99.839 0-55.139-43.518-99.838-97.2-99.838C43.69.162.173 44.86.173 100z"/>
    </defs>
    <g fill="none" fill-rule="evenodd">
        <g transform="translate(5.714)">
            <mask id="b" fill="#fff">
                <use xlink:href="#a"/>
            </mask>
            <path fill="#C7F4FF" d="M-5.87 202.462h211.648V-9.413H-5.87z" mask="url(#b)"/>
            <path fill="#B2733B" d="M-5.87 158.41h206.486v-11.415H-5.87zM18.117 214.59H176.63v-56.18H18.117z" mask="url(#b)"/>
            <path fill="#A36132" d="M29.573 214.59h135.6v-56.18h-135.6z" mask="url(#b)"/>
            <path fill="#965326" d="M29.573 163.255h135.6v-4.844h-135.6z" mask="url(#b)"/>
            <path fill="#A4622E" d="M176.211 158.41h-11.038v4.845h7.406a100.245 100.245 0 0 0 3.632-4.844m-146.638 0H18.534a100.25 100.25 0 0 0 3.633 4.844h7.406v-4.844" mask="url(#b)"/>
            <path fill="#FBDFB9" d="M64.957 115.38l-13.272 24.156a4.967 4.967 0 0 0 1.955 6.742 4.956 4.956 0 0 0 6.736-1.957l13.272-24.156a4.968 4.968 0 0 0-1.955-6.742 4.957 4.957 0 0 0-6.736 1.957" mask="url(#b)"/>
            <path fill="#FBDFB9" d="M56.03 146.893h42.76a4.962 4.962 0 0 0 4.96-4.965 4.962 4.962 0 0 0-4.96-4.964H56.03a4.962 4.962 0 0 0-4.959 4.964 4.962 4.962 0 0 0 4.96 4.965" mask="url(#b)"/>
            <path fill="#00BC76" d="M69.762 104.314L58.313 125.15l39.06 18.043V99.749H77.475a8.801 8.801 0 0 0-7.713 4.565" mask="url(#b)"/>
            <path fill="#FBDFB9" d="M121.098 120.165l13.272 24.156a4.956 4.956 0 0 0 6.736 1.957 4.967 4.967 0 0 0 1.955-6.742l-13.272-24.156a4.956 4.956 0 0 0-6.735-1.957 4.967 4.967 0 0 0-1.956 6.742" mask="url(#b)"/>
            <path fill="#EFC495" d="M135.415 125.62l.699 1.271-8.993 4.236-.734-1.336zM59.33 125.62l-.698 1.271 8.993 4.236.734-1.336z" mask="url(#b)"/>
            <path fill="#FBDFB9" d="M138.716 136.964h-42.76a4.962 4.962 0 0 0-4.96 4.964 4.962 4.962 0 0 0 4.96 4.965h42.76a4.962 4.962 0 0 0 4.959-4.965 4.962 4.962 0 0 0-4.96-4.964" mask="url(#b)"/>
            <path fill="#00BC76" d="M124.984 104.314l11.449 20.837-39.06 18.043V99.749h19.898c3.21 0 6.166 1.75 7.713 4.565" mask="url(#b)"/>
            <path fill="#00AF67" d="M97.373 110.132c5.72 0 10.372-4.658 10.372-10.383H87.001c0 5.725 4.653 10.383 10.372 10.383" mask="url(#b)"/>
            <path fill="#F0B78B" d="M90.192 94.599v5.15a7.185 7.185 0 0 0 7.181 7.188 7.185 7.185 0 0 0 7.18-7.188v-5.15h-14.36" mask="url(#b)"/>
            <path fill="#DDA277" d="M104.554 94.599H90.192v5.15c0 .08.004.158.006.237a19.68 19.68 0 0 0 4.953.632h4.443c1.69 0 3.35-.216 4.954-.632.002-.079.006-.158.006-.237v-5.15" mask="url(#b)"/>
            <path fill="#FBDFB9" d="M114.926 73.832V63.701H79.82v10.131h-2.393v7.317c0 9.598 8.137 17.443 17.724 17.443h4.443c9.588 0 17.725-7.845 17.725-17.443v-7.317h-2.393z" mask="url(#b)"/>
            <path fill="#F0B78B" d="M102.568 75.436h5.186a.506.506 0 0 0 0-1.013h-5.186a.506.506 0 0 0 0 1.013M86.992 75.436h5.186a.506.506 0 0 0 0-1.013h-5.186a.506.506 0 0 0 0 1.013M87.087 78.977a2.973 2.973 0 0 0 2.498 1.35 2.971 2.971 0 0 0 2.497-1.35.507.507 0 0 0-.846-.556 1.956 1.956 0 0 1-1.65.892 1.958 1.958 0 0 1-1.651-.893.506.506 0 1 0-.848.557zM102.663 78.977a2.973 2.973 0 0 0 2.498 1.35 2.973 2.973 0 0 0 2.497-1.35.507.507 0 0 0-.846-.556 1.956 1.956 0 0 1-1.651.892c-.317 0-.633-.075-.917-.222a1.96 1.96 0 0 1-.735-.67.506.506 0 1 0-.846.556z" mask="url(#b)"/>
            <path fill="#8E7144" d="M108.473 53.066h-22.2c-4.685 0-8.846 3.801-8.846 8.49v12.276h2.393v-3.518l4.456-6.613 30.65 6.613v3.518h2.393V61.556c0-4.689-4.162-8.49-8.846-8.49" mask="url(#b)"/>
            <path fill="#F4D0A4" d="M82.554 65.542s16.637 8.78 32.372 4.772l-30.65-6.613-1.722 1.841z" mask="url(#b)"/>
            <path fill="#8E7144" d="M84.276 63.7s12.716 9.249 30.65 6.614l.02-6.613h-30.67z" mask="url(#b)"/>
            <path fill="#8E7144" d="M79.82 71.699s3.946-2.094 4.456-7.998H79.82v7.998z" mask="url(#b)"/>
            <path fill="#FBDFB9" d="M117.456 82.019h-2.53v-8.187h2.53c1.55 0 2.513.868 2.513 2.419v3.252c0 1.551-.964 2.516-2.513 2.516" mask="url(#b)"/>
            <path fill="#F4D0A4" d="M117.159 80.195h-2.233v-4.539h2.233a.99.99 0 0 1 .988.99v2.56a.99.99 0 0 1-.988.99" mask="url(#b)"/>
            <path fill="#FBDFB9" d="M77.29 82.019h2.53v-8.187h-2.53a2.515 2.515 0 0 0-2.513 2.516v3.155a2.515 2.515 0 0 0 2.513 2.516" mask="url(#b)"/>
            <path fill="#F4D0A4" d="M77.587 80.195h2.233v-4.539h-2.233a.99.99 0 0 0-.989.99v2.56c0 .546.443.99.99.99" mask="url(#b)"/>
            <path fill="#E6E6E6" d="M124.085 147.017H70.66a3.038 3.038 0 0 1-3.036-3.04v-31.6c0-1.679 1.36-3.04 3.036-3.04h53.424a3.038 3.038 0 0 1 3.036 3.04v31.6c0 1.679-1.36 3.04-3.036 3.04" mask="url(#b)"/>
            <path fill="#D3D3D3" d="M124.085 144.687H70.66a3.038 3.038 0 0 1-3.036-3.04v2.33c0 1.679 1.36 3.04 3.036 3.04h53.424a3.038 3.038 0 0 0 3.036-3.04v-2.33c0 1.679-1.36 3.04-3.036 3.04" mask="url(#b)"/>
            <path fill="#FFF" d="M103.03 128.177a5.66 5.66 0 0 1-5.657 5.663 5.66 5.66 0 0 1-5.657-5.663 5.66 5.66 0 0 1 5.657-5.663 5.66 5.66 0 0 1 5.657 5.663" mask="url(#b)"/>
        </g>
        <path fill="#FFF" d="M48.996 58.227c-.895 0-1.62-.729-1.62-1.628v-.768c0-3.212-2.26-6.028-5.41-6.577a6.493 6.493 0 0 0-2.62.078l-.015-.012V47.56c0-6.107-4.941-11.148-11.018-11.026-5.861.118-10.577 4.929-10.577 10.846v.05a9.124 9.124 0 0 0-4.074-.955c-5.081 0-9.2 4.14-9.2 9.245l.003.92c.004.873-.699 1.585-1.568 1.588A2.903 2.903 0 0 0 0 61.137a2.903 2.903 0 0 0 2.896 2.91h46.1c1.6 0 2.896-1.303 2.896-2.91a2.903 2.903 0 0 0-2.896-2.91"/>
        <path fill="#FFB829" d="M184.051 29.181c0 11.658-9.406 21.108-21.008 21.108-11.603 0-21.01-9.45-21.01-21.108 0-11.657 9.407-21.107 21.01-21.107 11.602 0 21.008 9.45 21.008 21.107"/>
    </g>
</svg>
