<svg xmlns="http://www.w3.org/2000/svg" width="898" height="355" viewBox="0 0 898 355">
    <g fill="none" fill-rule="evenodd">
        <path fill="#FFF5EB" d="M808.942 353.587l-3.57.375-3.57.337-3.57-.037-3.57-.209-3.57-.257-3.567.027-3.57-.14-3.566.478-3.57-.274-3.569.207-3.572-.31-3.57-.133-3.57.41-3.574-.177-3.573.104-3.573-.268-3.572-.058-3.572.541-3.574-.507-3.579.385-3.579-.53-1.854-1.639-.539-3.57.23-3.57-.045-3.569.571-3.569-.245-3.57-.395-3.576.648-3.576 1.63-1.669 3.57-.425 3.57.032 3.57.036 3.57.001 3.57.114 3.566.046 3.57.17 3.566-.527 3.571.217 3.568.01 3.572.363 3.57-.674 3.571.074 3.573.225 3.573-.087 3.573-.094 3.572-.175 3.572-.028 3.574.715 3.58-.054 3.578-.492 1.901 2.222.373 3.57-.173 3.57-.446 3.568.626 3.57.106 3.57-.187 3.576-.27 3.576zM722.942 353.595l-3.57.018-3.57.514-3.57-.283-3.57-.173-3.57.073-3.567.132-3.57.327-3.566-.155-3.57-.128-3.569-.289-3.572.203-3.57-.302-3.57.136-3.574-.08-3.573.374-3.573.337-3.572-.037-3.572-.209-3.574-.257-3.579.027-3.579-.14-2.249-1.77.273-3.57-.206-3.57.31-3.57.133-3.569-.41-3.57.177-3.576-.105-3.576 2.077-1.808 3.57.057 3.57-.54 3.57.507 3.57-.385 3.571.53 3.566-.216 3.57-.539 3.566.231 3.571-.045 3.568.571 3.572-.245 3.57-.395 3.571.648 3.573-.04 3.573-.425 3.573.032 3.572.036 3.572.001 3.574.114 3.58.046 3.578.17 2.222 1.695-.217 3.57-.009 3.57-.364 3.568.674 3.57-.074 3.57-.225 3.576.086 3.576z"/>
        <path fill="#FAECD2" d="M636.942 353.77l-3.57-.17-3.57.195-3.57.289-3.57.177-3.57.028-3.567-.652-3.57-.12-3.566.428-3.57.016-3.569-.363-3.572.4-3.57-.381-3.57.336-3.574-.358-3.573.019-3.573.513-3.572-.283-3.572-.172-3.574.072-3.579.133-3.579.327-2.136-2.292.128-3.57.288-3.57-.203-3.568.303-3.57-.136-3.57.081-3.576-.375-3.576 2.05-2.387 3.57.037 3.57.209 3.57.257 3.57-.027 3.571.14 3.566-.478 3.57.274 3.566-.207 3.571.31 3.568.133 3.572-.41 3.57.177 3.571-.104 3.573.268 3.573.058 3.573-.541 3.572.507 3.572-.385 3.574.53 3.58-.215 3.578-.54 2.163 2.394.045 3.57-.57 3.57.244 3.569.395 3.569-.648 3.57.04 3.576.425 3.576z"/>
        <path fill="#FFF5EB" d="M464.942 353.81l-3.57-.195-3.57.682-3.57-.302-3.57-.202-3.57.455-3.567-.189-3.57-.122-3.566-.227-3.57.548-3.569-.528-3.572-.09-3.57.507-3.57-.075-3.574-.347-3.573-.043-3.573.345-3.572.267-3.572-.457-3.574-.166-3.579.31-3.579-.456-2.14-1.613-.128-3.57.04-3.57.412-3.569.085-3.569-.003-3.57-.124-3.576.17-3.576 1.688-1.883 3.57-.289 3.57-.177 3.57-.028 3.57.652 3.571.12 3.566-.428 3.57-.016 3.566.363 3.571-.4 3.568.381 3.572-.336 3.57.358 3.571-.019 3.573-.513 3.573.283 3.573.173 3.572-.073 3.572-.133 3.574-.327 3.58.156 3.578.128 1.72 2.008.203 3.57-.303 3.57.136 3.568-.08 3.57.374 3.57.337 3.576-.037 3.576zM378.942 353.64l-3.57.465-3.57-.504-3.57.457-3.57-.208-3.57.351-3.567-.072-3.57.004-3.566-.586-3.57.566-3.569-.434-3.572.43-3.57-.198-3.57.056-3.574-.158-3.573-.194-3.573.682-3.572-.302-3.572-.202-3.574.455-3.579-.189-3.579-.122-1.798-2.025-.548-3.57.528-3.57.09-3.569-.507-3.569.075-3.57.347-3.576.042-3.576 1.771-2.115 3.57-.267 3.57.457 3.57.165 3.57-.31 3.571.456 3.566-.527 3.57-.128 3.566.04 3.571.413 3.568.085 3.572-.003 3.57-.124 3.571.17 3.573-.195 3.573-.289 3.573-.177 3.572-.028 3.572.652 3.574.12 3.58-.428 3.578-.016 1.686 2.05.4 3.568-.382 3.57.337 3.57-.358 3.568.018 3.571.514 3.576-.283 3.576zM206.942 353.732l-3.57-.132-3.57-.043-3.57-.024-3.57.606-3.57-.265-3.567.19-3.57.205-3.566-.507-3.57.424-3.569-.273-3.572-.191-3.57-.022-3.57-.18-3.574.57-3.573.019-3.573.126-3.572-.375-3.572-.215-3.574.559-3.579.072-3.579-.72-1.956-1.644-.385-3.57.6-3.57-.318-3.568-.119-3.57.128-3.57.323-3.576-.466-3.576 2.193-1.69 3.57-.456 3.57.208 3.57-.351 3.57.072 3.571-.004 3.566.586 3.57-.565 3.566.433 3.571-.43 3.568.198 3.572-.056 3.57.158 3.571.194 3.573-.682 3.573.302 3.573.202 3.572-.455 3.572.189 3.574.122 3.58.227 3.578-.548 1.818 2.346-.089 3.57.506 3.57-.075 3.569-.347 3.569-.042 3.57.344 3.576.267 3.576zM120.942 353.78l-3.57.254-3.57.198-3.57-.277-3.57.174-3.57-.29-3.567-.14-3.57.391-3.566-.536-3.57.632-3.569.115-3.572-.369-3.57-.386-3.57.392-3.574-.207-3.573-.13-3.573-.045-3.572-.024-3.572.606-3.574-.265-3.579.19-3.579.206-1.85-2.357-.423-3.57.272-3.57.191-3.569.022-3.569.18-3.57-.57-3.576-.019-3.576 2.197-2.323 3.57.375 3.57.215 3.57-.559 3.57-.072 3.571.72 3.566-.312 3.57-.385 3.566.6 3.571-.319 3.568-.118 3.572.128 3.57.322 3.571-.466 3.573.504 3.573-.456 3.573.207 3.572-.35 3.572.071 3.574-.003 3.58.585 3.578-.565 1.767 2.201.43 3.57-.198 3.57.057 3.568-.159 3.57-.193 3.57.682 3.576-.303 3.576zM851.942 318.07l-3.57-.014-3.57-.109-3.57.2-3.57-.259-3.57-.365-3.567.066-3.57.047-3.566.201-3.57.366-3.569-.59-3.572.49-3.57-.38-3.57.426-3.574-.197-3.573-.125-3.573-.195-3.572.545-3.572.065-3.574-.707-3.579-.01-3.579.694-2.195-2.307-.082-3.57.448-3.57-.512-3.569-.032-3.569.39-3.57.277-3.576-.099-3.576 1.805-1.685 3.57-.244 3.57.183 3.57-.318 3.57.258 3.571-.56 3.566.625 3.57-.133 3.566-.327 3.571.441 3.568-.164 3.572-.349 3.57.347 3.571-.32 3.573.345 3.573-.249 3.573.442 3.572-.372 3.572.021 3.574.36 3.58.008 3.578-.27 2.225 1.961-.075 3.57-.468 3.57.28 3.568.28 3.57.111 3.57-.699 3.576.044 3.576z"/>
        <path fill="#FAECD2" d="M765.942 317.93l-3.57.138-3.57-.403-3.57.502-3.57-.33-3.57.17-3.567-.414-3.57.363-3.566.33-3.57-.751-3.569.376-3.572-.004-3.57.202-3.57-.144-3.574.105-3.573-.014-3.573-.108-3.572.198-3.572-.257-3.574-.366-3.579.066-3.579.048-1.925-1.725-.367-3.57.591-3.57-.489-3.568.38-3.57-.427-3.57.197-3.576.125-3.576 1.915-1.72 3.57-.545 3.57-.065 3.57.707 3.57.01 3.571-.694 3.566.112 3.57-.081 3.566.447 3.571-.512 3.568-.032 3.572.389 3.57.278 3.571-.1 3.573.122 3.573-.245 3.573.184 3.572-.32 3.572.259 3.574-.56 3.58.625 3.578-.133 2.201 1.874-.44 3.57.163 3.57.35 3.569-.348 3.569.32 3.57-.345 3.576.25 3.576z"/>
        <path fill="#FFF5EB" d="M679.942 318.017l-3.57.124-3.57-.398-3.57.12-3.57-.008-3.57-.335-3.567.616-3.57-.266-3.566.22-3.57.13-3.569-.103-3.572-.462-3.57-.045-3.57-.022-3.574.343-3.573.137-3.573-.403-3.572.502-3.572-.33-3.574.17-3.579-.414-3.579.364-2.374-2.045.751-3.57-.375-3.57.003-3.568-.202-3.57.144-3.57-.105-3.576.014-3.576 2.144-2.035 3.57-.2 3.57.259 3.57.365 3.57-.066 3.571-.047 3.566-.2 3.57-.367 3.566.59 3.571-.49 3.568.382 3.572-.428 3.57.197 3.571.125 3.573.195 3.573-.545 3.573-.065 3.572.707 3.572.01 3.574-.694 3.58.112 3.578-.081 1.83 2.276.511 3.57.032 3.57-.389 3.569-.278 3.569.1 3.57-.12 3.576.243 3.576zM593.942 318.058l-3.57-.293-3.57.218-3.57-.303-3.57.086-3.57.303-3.567-.274-3.57.364-3.566-.005-3.57-.201-3.569-.35-3.572-.025-3.57.388-3.57-.235-3.574.286-3.573.124-3.573-.398-3.572.119-3.572-.008-3.574-.335-3.579.617-3.579-.266-2.179-1.958-.129-3.57.103-3.57.462-3.568.045-3.57.023-3.57-.344-3.576-.137-3.576 2.156-1.752 3.57-.503 3.57.33 3.57-.17 3.57.415 3.571-.364 3.566-.33 3.57.751 3.566-.375 3.571.003 3.568-.202 3.572.144 3.57-.105 3.571.014 3.573.109 3.573-.199 3.573.258 3.572.365 3.572-.066 3.574-.047 3.58-.201 3.578-.367 1.701 2.292.49 3.57-.38 3.57.426 3.569-.197 3.569-.125 3.57-.195 3.576.545 3.576zM507.942 317.73l-3.57-.194-3.57.155-3.57.538-3.57-.174-3.57-.356-3.567.338-3.57-.514-3.566.142-3.57.316-3.569-.394-3.572-.02-3.57.34-3.57.06-3.574.091-3.573-.293-3.573.218-3.572-.303-3.572.086-3.574.303-3.579-.274-3.579.364-2.242-2.247.201-3.57.351-3.57.024-3.569-.388-3.569.235-3.57-.286-3.576-.124-3.576 2.23-1.83 3.57-.12 3.57.008 3.57.335 3.57-.617 3.57.266 3.566-.22 3.57-.13 3.566.103 3.571.462 3.568.045 3.572.023 3.57-.344 3.571-.137 3.573.403 3.573-.502 3.573.33 3.572-.17 3.572.415 3.574-.364 3.58-.33 3.578.751 1.998 1.623-.003 3.57.202 3.57-.144 3.568.105 3.57-.014 3.57-.109 3.576.2 3.576z"/>
        <path fill="#FAECD2" d="M421.942 317.838l-3.57.07-3.57-.156-3.57-.136-3.57-.099-3.57.547-3.567-.505-3.57.244-3.566.163-3.57-.06-3.569-.357-3.572.681-3.57-.49-3.57.07-3.574-.08-3.573-.195-3.573.156-3.572.538-3.572-.174-3.574-.357-3.579.34-3.579-.516-1.753-1.61-.316-3.57.393-3.57.022-3.569-.34-3.569-.06-3.57-.092-3.576.293-3.576 1.853-2.072 3.57.304 3.57-.087 3.57-.302 3.57.274 3.571-.365 3.566.006 3.57.2 3.566.351 3.571.025 3.568-.389 3.572.235 3.57-.285 3.571-.124 3.573.398 3.573-.12 3.573.008 3.572.335 3.572-.616 3.574.266 3.58-.22 3.578-.13 2.205 2.308-.462 3.57-.045 3.57-.023 3.568.344 3.57.137 3.57-.403 3.576.502 3.576z"/>
        <path fill="#FAECD1" d="M335.942 317.86l-3.57-.046-3.57.341-3.57-.257-3.57.377-3.57-.112-3.567.093-3.57-.158-3.566-.176-3.57-.02-3.569.292-3.572-.665-3.57.004-3.57.024-3.574.281-3.573.07-3.573-.156-3.572-.136-3.572-.099-3.574.547-3.579-.505-3.579.244-2.054-1.89.06-3.57.357-3.57-.68-3.57.49-3.569-.072-3.57.081-3.576.194-3.576 1.624-1.779 3.57-.538 3.57.174 3.57.356 3.57-.338 3.571.514 3.566-.142 3.57-.316 3.566.393 3.571.022 3.568-.34 3.572-.06 3.57-.092 3.571.293 3.573-.218 3.573.303 3.573-.086 3.572-.303 3.572.274 3.574-.364 3.58.005 3.578.201 1.69 2.041-.025 3.57.39 3.57-.236 3.568.286 3.57.124 3.57-.398 3.576.12 3.576z"/>
        <path fill="#FFF5EB" d="M249.942 318.087l-3.57.099-3.57-.596-3.57.653-3.57.02-3.57-.278-3.567-.087-3.57.29-3.566-.138-3.57.103-3.569-.131-3.572-.117-3.57-.057-3.57-.247-3.574.259-3.573-.045-3.573.34-3.572-.256-3.572.376-3.574-.111-3.579.093-3.579-.16-2.01-2.185.02-3.57-.292-3.57.665-3.568-.004-3.57-.024-3.57-.28-3.576-.07-3.576 1.995-1.84 3.57.136 3.57.099 3.57-.547 3.57.505 3.571-.244 3.566-.163 3.57.06 3.566.357 3.571-.681 3.568.492 3.572-.072 3.57.08 3.571.195 3.573-.156 3.573-.538 3.573.174 3.572.357 3.572-.34 3.574.516 3.58-.143 3.578-.315 1.676 2.068-.022 3.57.34 3.57.061 3.569.091 3.569-.293 3.57.218 3.576-.303 3.576z"/>
        <path fill="#FAECD2" d="M163.942 318.263l-3.57-.706-3.57.387-3.57-.137-3.57-.103-3.57-.014-3.567.497-3.57-.403-3.566.162-3.57-.4-3.569.611-3.572-.302-3.57-.062-3.57.22-3.574.074-3.573.098-3.573-.595-3.572.652-3.572.02-3.574-.277-3.579-.087-3.579.29-2.138-2.276-.103-3.57.132-3.57.116-3.569.057-3.569.248-3.57-.26-3.576.046-3.576 1.902-2.243 3.57.257 3.57-.377 3.57.112 3.57-.093 3.571.158 3.566.176 3.57.02 3.566-.292 3.571.665 3.568-.004 3.572-.024 3.57-.28 3.571-.07 3.573.155 3.573.136 3.573.1 3.572-.548 3.572.505 3.574-.244 3.58-.163 3.578.06 1.637 1.994.681 3.57-.49 3.57.071 3.568-.08 3.57-.195 3.57.155 3.576.538 3.576z"/>
        <path fill="#FFF5EB" d="M894.942 281.521l-3.57.641-3.57.063-3.57.045-3.57-.38-3.57.385-3.567-.199-3.57-.116-3.566-.354-3.57.026h-3.569l-3.572.218-3.57.148-3.57-.192-3.574.197-3.573-.206-3.573.064-3.572-.26-3.572.187-3.574.252-3.579.24-3.579-.064-1.893-2.304.004-3.57-.176-3.57-.215-3.569.237-3.569.311-3.57-.234-3.576-.425-3.576 2.391-2.056 3.57.44 3.57-.11 3.57-.627 3.57.628 3.571-.256 3.566-.185 3.57-.216 3.566.265 3.571-.029 3.568.261 3.572.13 3.57-.014 3.571-.025 3.573-.21 3.573.116 3.573-.126 3.572-.174 3.572.396 3.574-.302 3.58.085 3.578.177 2.253 1.832-.344 3.57.44 3.57-.165 3.568-.138 3.57.018 3.57-.283 3.576.55 3.576zM808.942 281.933l-3.57.056-3.57.044-3.57-.48-3.57.041-3.57-.069-3.567.395-3.57.105-3.566-.454-3.57.707-3.569-.312-3.572.116-3.57.024-3.57-.166-3.574-.419-3.573.641-3.573.063-3.572.045-3.572-.38-3.574.385-3.579-.199-3.579-.116-1.694-2.048-.026-3.57.001-3.57-.219-3.569-.148-3.569.192-3.57-.197-3.576.206-3.576 1.885-1.95 3.57.26 3.57-.186 3.57-.252 3.57-.24 3.571.063 3.566.411 3.57.004 3.566-.175 3.571-.215 3.568.236 3.572.312 3.57-.234 3.571-.425 3.573.334 3.573.441 3.573-.11 3.572-.627 3.572.628 3.574-.256 3.58-.185 3.578-.216 2.117 2.382.03 3.57-.262 3.57-.129 3.568.012 3.57.025 3.57.212 3.576-.117 3.576zM722.942 282.187l-3.57-.018-3.57-.543-3.57.075-3.57.144-3.57.303-3.567-.626-3.57.635-3.566-.108-3.57.016-3.569-.109-3.572-.282-3.57.37-3.57-.344-3.574.233-3.573.057-3.573.043-3.572-.48-3.572.041-3.574-.069-3.579.395-3.579.105-1.66-2.113-.707-3.57.312-3.57-.115-3.568-.025-3.57.167-3.57.42-3.576-.642-3.576 2.25-2.313 3.57-.045 3.57.38 3.57-.385 3.57.199 3.571.116 3.566.354 3.57-.026 3.566.001 3.571-.219 3.568-.148 3.572.192 3.57-.197 3.571.206 3.573-.064 3.573.26 3.573-.187 3.572-.252 3.572-.24 3.574.063 3.58.412 3.578.004 2.065 1.889.215 3.57-.237 3.57-.31 3.569.233 3.569.425 3.57-.335 3.576-.44 3.576zM636.942 282.3l-3.57-.448-3.57.387-3.57-.076-3.57-.172-3.57.267-3.567-.455-3.57-.098-3.566.21-3.57.17-3.569-.183-3.572.264-3.57-.472-3.57.504-3.574-.011-3.573-.018-3.573-.542-3.572.074-3.572.145-3.574.302-3.579-.625-3.579.635-2.137-2.246-.016-3.57.11-3.57.281-3.568-.37-3.57.344-3.57-.233-3.576-.057-3.576 2.078-2.12 3.57.48 3.57-.041 3.57.068 3.57-.395 3.571-.105 3.566.454 3.57-.707 3.566.312 3.571-.116 3.568-.024 3.572.166 3.57.419 3.571-.641 3.573-.063 3.573-.045 3.573.38 3.572-.385 3.572.2 3.574.116 3.58.354 3.578-.027 1.72 1.72.218 3.57.148 3.57-.192 3.569.197 3.569-.206 3.57.064 3.576-.26 3.576zM550.942 282.237l-3.57-.3-3.57.235-3.57-.534-3.57.313-3.57-.087-3.567-.116-3.57-.167-3.566.066-3.57.063-3.569.3-3.572.218-3.57-.167-3.57.012-3.574.226-3.573-.448-3.573.387-3.572-.076-3.572-.17-3.574.266-3.579-.456-3.579-.098-2.002-1.792-.17-3.57.182-3.57-.264-3.569.473-3.569-.504-3.57.01-3.576.018-3.576 2.257-1.714 3.57-.075 3.57-.145 3.57-.302 3.57.625 3.571-.635 3.566.11 3.57-.017 3.566.11 3.571.28 3.568-.369 3.572.344 3.57-.234 3.571-.056 3.573-.043 3.573.48 3.573-.04 3.572.067 3.572-.395 3.574-.104 3.58.453 3.578-.707 2.055 2.367.115 3.57.025 3.57-.167 3.568-.419 3.57.641 3.57.063 3.576.045 3.576zM464.942 281.824l-3.57.461-3.57-.761-3.57.33-3.57-.14-3.57.404-3.567-.276-3.57-.146-3.566.134-3.57.195-3.569-.134-3.572.167-3.57.049-3.57-.331-3.574.461-3.573-.3-3.573.235-3.572-.533-3.572.312-3.574-.087-3.579-.115-3.579-.168-1.735-1.669-.063-3.57-.3-3.57-.219-3.568.168-3.57-.012-3.57-.227-3.576.45-3.576 1.938-2.326 3.57.076 3.57.171 3.57-.267 3.57.456 3.571.098 3.566-.21 3.57-.171 3.566.184 3.571-.264 3.568.472 3.572-.504 3.57.01 3.571.018 3.573.543 3.573-.075 3.573-.144 3.572-.303 3.572.626 3.574-.635 3.58.108 3.578-.016 2.044 2.153-.282 3.57.37 3.57-.344 3.569.233 3.569.057 3.57.043 3.576-.48 3.576zM378.942 282.102l-3.57-.4-3.57.36-3.57-.078-3.57-.214-3.57.086-3.567.138-3.57.04-3.566-.09-3.57-.24-3.569.45-3.572-.544-3.57.316-3.57-.19-3.574.088-3.573.461-3.573-.76-3.572.33-3.572-.14-3.574.403-3.579-.276-3.579-.147-1.918-1.783-.195-3.57.134-3.57-.167-3.569-.049-3.569.331-3.57-.46-3.576.3-3.576 2.024-2.26 3.57.533 3.57-.312 3.57.087 3.57.115 3.571.168 3.566-.066 3.57-.063 3.566-.3 3.571-.219 3.568.168 3.572-.013 3.57-.226 3.571.45 3.573-.388 3.573.076 3.573.171 3.572-.267 3.572.456 3.574.097 3.58-.209 3.578-.17 1.99 2.172.264 3.57-.473 3.57.504 3.568-.01 3.57-.018 3.57-.543 3.576.075 3.576z"/>
        <path fill="#FAECD2" d="M292.942 281.756l-3.57.269-3.57.083-3.57-.33-3.57-.192-3.57-.05-3.567.49-3.57-.369-3.566.056-3.57.008-3.569.118-3.572.28-3.57-.556-3.57.336-3.574.203-3.573-.401-3.573.362-3.572-.079-3.572-.214-3.574.086-3.579.138-3.579.041-2.032-2.123.24-3.57-.449-3.57.543-3.568-.316-3.57.191-3.57-.089-3.576-.46-3.576 2.372-1.612 3.57-.33 3.57.14 3.57-.404 3.57.276 3.571.147 3.566-.135 3.57-.195 3.566.134 3.571-.167 3.568-.049 3.572.331 3.57-.461 3.571.3 3.573-.235 3.573.533 3.573-.312 3.572.087 3.572.116 3.574.167 3.58-.066 3.578-.063 2.1 1.798.217 3.57-.168 3.57.012 3.569.227 3.569-.449 3.57.387 3.576-.076 3.576z"/>
        <path fill="#FFF5EB" d="M206.942 282.056l-3.57-.461-3.57.585-3.57-.482-3.57.08-3.57.17-3.567-.265-3.57.145-3.566-.147-3.57.588-3.569-.687-3.572.124-3.57.085-3.57.263-3.574-.298-3.573.269-3.573.083-3.572-.33-3.572-.191-3.574-.05-3.579.489-3.579-.37-1.8-1.744-.009-3.57-.118-3.57-.28-3.568.556-3.57-.336-3.57-.203-3.576.401-3.576 1.79-2.15 3.57.079 3.57.213 3.57-.085 3.57-.14 3.57-.04 3.566.09 3.57.242 3.566-.45 3.571.544 3.568-.316 3.572.19 3.57-.088 3.571-.461 3.573.76 3.573-.33 3.573.14 3.572-.403 3.572.276 3.574.146 3.58-.135 3.578-.194 1.98 2.112.166 3.57.05 3.57-.332 3.569.461 3.569-.3 3.57.235 3.577-.533 3.575z"/>
        <path fill="#FAECD2" d="M851.942 246.05l-3.57.066-3.57-.473-3.57.386-3.57.179-3.57.02-3.567-.394-3.57-.075-3.566.425-3.57-.64-3.569.153-3.572-.087-3.57.01-3.57.485-3.574-.471-3.573.514-3.573.159-3.572-.517-3.572.092-3.574-.15-3.579.096-3.579-.098-2.138-1.818-.19-3.57.441-3.57-.437-3.568.3-3.57-.026-3.57-.21-3.576.095-3.576 2.165-2.232 3.57.34 3.57.12 3.57-.421 3.57.233 3.571-.391 3.566.257 3.57-.02 3.566.128 3.571-.396 3.568.608 3.572.132 3.57-.653 3.571.162 3.573.099 3.573.072 3.573-.43 3.572.704 3.572-.124 3.574-.344 3.58.528 3.578-.13 1.75 1.758.54 3.57-.209 3.57-.467 3.569.008 3.569.69 3.57-.5 3.576-.035 3.576z"/>
        <path fill="#FFF5EB" d="M765.942 245.609l-3.57.454-3.57-.015-3.57-.292-3.57.17-3.57.26-3.567-.1-3.57.106-3.566-.476-3.57.012-3.569.197-3.572.017-3.57-.188-3.57.275-3.574.022-3.573.065-3.573-.473-3.572.386-3.572.179-3.574.02-3.579-.394-3.579-.075-2.27-1.847.64-3.57-.155-3.57.087-3.568-.01-3.57-.485-3.57.471-3.576-.513-3.576 2.235-2.394 3.57.516 3.57-.091 3.57.148 3.57-.094 3.571.097 3.566-.32 3.57-.19 3.566.442 3.571-.438 3.568.3 3.572-.026 3.57-.21 3.571.096 3.573-.068 3.573.34 3.573.12 3.572-.421 3.572.233 3.574-.391 3.58.258 3.578-.02 1.986 2.113.396 3.57-.608 3.57-.132 3.569.654 3.569-.163 3.57-.099 3.576-.072 3.576zM679.942 245.53l-3.57.565-3.57.128-3.57-.475-3.57-.183-3.57.41-3.567-.019-3.57-.01-3.566.346-3.57-.289-3.569-.239-3.572.364-3.57-.117-3.57-.437-3.574.035-3.573.454-3.573-.015-3.572-.292-3.572.171-3.574.259-3.579-.099-3.579.105-1.803-2.28-.012-3.57-.197-3.57-.017-3.568.188-3.57-.275-3.57-.023-3.576-.065-3.576 2.204-1.73 3.57-.386 3.57-.18 3.57-.02 3.57.394 3.571.076 3.566-.425 3.57.64 3.566-.154 3.571.088 3.568-.011 3.572-.485 3.57.471 3.571-.513 3.573-.16 3.573.517 3.573-.091 3.572.148 3.572-.095 3.574.098 3.58-.32 3.578-.19 1.887 2.328.438 3.57-.3 3.57.025 3.569.21 3.569-.095 3.57.067 3.576-.34 3.576zM593.942 246.13l-3.57-.346-3.57-.004-3.57-.216-3.57.06-3.57.643-3.567-.092-3.57.074-3.566-.377-3.57.073-3.569.323-3.572-.688-3.57.538-3.57-.552-3.574-.036-3.573.565-3.573.128-3.572-.475-3.572-.183-3.574.41-3.579-.02-3.579-.01-2.38-2.033.29-3.57.238-3.57-.364-3.568.117-3.57.437-3.57-.035-3.576-.454-3.576 2.151-2.136 3.57.293 3.57-.172 3.57-.26 3.57.1 3.571-.104 3.566.476 3.57-.012 3.566-.197 3.571-.017 3.568.188 3.572-.275 3.57-.023 3.571-.065 3.573.474 3.573-.386 3.573-.18 3.572-.02 3.572.394 3.574.076 3.58-.425 3.578.64 1.785 1.63-.087 3.57.01 3.57.485 3.57-.47 3.569.512 3.57.16 3.576-.517 3.576zM507.942 246.137l-3.57-.097-3.57-.205-3.57.34-3.57-.613-3.57.527-3.567-.141-3.57.12-3.566.109-3.57-.536-3.569.468-3.572-.333-3.57-.155-3.57.53-3.574-.02-3.573-.347-3.573-.004-3.572-.216-3.572.06-3.574.643-3.579-.092-3.579.075-1.96-2.338-.073-3.57-.322-3.57.687-3.568-.538-3.57.552-3.57.036-3.576-.565-3.576 2.183-2.311 3.57.476 3.57.183 3.57-.41 3.57.019 3.571.01 3.566-.346 3.57.289 3.566.239 3.571-.364 3.568.116 3.572.438 3.57-.035 3.571-.454 3.573.015 3.573.292 3.573-.172 3.572-.258 3.572.099 3.574-.105 3.58.476 3.578-.012 2.012 1.815.017 3.57-.188 3.57.275 3.569.023 3.569.065 3.57-.474 3.576.386 3.576zM421.942 245.957l-3.57.164-3.57-.053-3.57-.213-3.57-.039-3.57-.117-3.567.554-3.57-.632-3.566.163-3.57.392-3.569-.177-3.572-.19-3.57-.15-3.57.246-3.574.231-3.573-.097-3.573-.204-3.572.34-3.572-.613-3.574.526-3.579-.14-3.579.12-2.265-2.156.536-3.57-.467-3.57.333-3.569.154-3.569-.53-3.57.02-3.576.347-3.576 1.872-1.868 3.57.216 3.57-.06 3.57-.643 3.57.092 3.571-.074 3.566.377 3.57-.074 3.566-.322 3.571.688 3.568-.538 3.572.552 3.57.036 3.571-.565 3.573-.128 3.573.475 3.573.183 3.572-.41 3.572.02 3.574.01 3.58-.347 3.578.29 1.852 2.09.364 3.57-.117 3.57-.437 3.568.035 3.57.454 3.57-.015 3.576-.292 3.576zM335.942 245.698l-3.57.223-3.57-.36-3.57.166-3.57.366-3.57-.447-3.567.479-3.57-.14-3.566.157-3.57-.313-3.569-.117-3.572.558-3.57-.11-3.57-.53-3.574.328-3.573.164-3.573-.054-3.572-.213-3.572-.038-3.574-.118-3.579.555-3.579-.633-1.872-1.71-.392-3.568.177-3.57.19-3.57.15-3.568-.246-3.571-.232-3.576.098-3.576 2.127-1.922 3.57-.341 3.57.613 3.57-.526 3.57.14 3.571-.12 3.566-.108 3.57.536 3.566-.468 3.571.333 3.568.154 3.572-.53 3.57.02 3.571.348 3.573.004 3.573.216 3.573-.061 3.572-.642 3.572.092 3.574-.075 3.58.377 3.578-.073 2.355 2.033-.687 3.57.538 3.57-.552 3.569-.036 3.569.565 3.57.128 3.576-.475 3.576zM249.942 245.814l-3.57.432-3.57.002-3.57-.244-3.57.012-3.57-.386-3.567-.012-3.57.552-3.566-.152-3.57-.118-3.569-.112-3.572.153-3.57.341-3.57-.442-3.574-.142-3.573.223-3.573-.36-3.572.165-3.572.366-3.574-.446-3.579.478-3.579-.138-2.23-2.074.314-3.57.116-3.57-.558-3.569.11-3.569.53-3.57-.327-3.576-.165-3.576 2.21-2.156 3.57.213 3.57.04 3.57.116 3.57-.554 3.571.632 3.566-.163 3.57-.393 3.566.178 3.571.19 3.568.15 3.572-.247 3.57-.23 3.571.097 3.573.204 3.573-.34 3.573.613 3.572-.526 3.572.141 3.574-.12 3.58-.11 3.578.536 2.196 1.73-.333 3.57-.154 3.57.53 3.567-.02 3.57-.347 3.57-.005 3.576-.215 3.576zM163.942 246.158l-3.57.098-3.57-.545-3.57.149-3.57.11-3.57-.076-3.567.319-3.57-.468-3.566-.073-3.57-.15-3.569.425-3.572-.113-3.57.42-3.57-.443-3.574.003-3.573.433h-3.573l-3.572-.243-3.572.012-3.574-.386-3.579-.011-3.579.55-2.106-2.257.118-3.57.112-3.57-.153-3.568-.34-3.57.44-3.57.143-3.576-.223-3.576 2.01-1.65 3.57-.164 3.57-.366 3.57.446 3.57-.478 3.57.139 3.566-.157 3.57.314 3.566.117 3.571-.56 3.568.112 3.572.528 3.57-.326 3.571-.164 3.573.053 3.573.214 3.573.038 3.572.117 3.572-.554 3.574.632 3.58-.163 3.578-.392 2.087 2.264-.19 3.57-.15 3.57.246 3.569.232 3.569-.098 3.57-.204 3.576.34 3.576zM77.942 245.544l-3.57.523-3.57.198-3.57-.043-3.57-.082-3.57.073-3.567-.326-3.57.217-3.566-.502-3.57.09-3.569.04-3.572-.056-3.57.01-3.57-.006-3.574.477-3.573.098-3.573-.544-3.572.148-3.572.111-3.574-.077-3.579.32-3.579-.469-1.759-1.832.148-3.57-.423-3.57.112-3.569-.42-3.569.444-3.57-.004-3.576-.433-3.576 2.335-2.336 3.57.244 3.57-.012 3.57.386 3.57.011 3.571-.55 3.566.151 3.57.118 3.566.112 3.571-.153 3.568-.34 3.572.44 3.57.143 3.571-.223 3.573.36 3.573-.165 3.573-.367 3.572.447 3.572-.479 3.574.14 3.58-.157 3.578.313 1.8 1.917.558 3.57-.11 3.57-.529 3.568.326 3.57.165 3.57-.054 3.576-.213 3.576zM808.942 209.906l-3.57-.251-3.57-.11-3.57.303-3.57.346-3.57-.438-3.567-.144-3.57.12-3.566.452-3.57-.465-3.569.007-3.572.34-3.57-.341-3.57-.01-3.574.262-3.573.121-3.573-.265-3.572-.035-3.572.282-3.574-.53-3.579.2-3.579.096-1.982-1.934.283-3.57-.078-3.57-.479-3.569.151-3.569.104-3.57-.169-3.576.32-3.576 1.85-1.875 3.57.036 3.57.1 3.57-.38 3.57.102 3.571.26 3.566-.042 3.57-.183 3.566-.216 3.571.25 3.568.225 3.572.097 3.57-.655 3.571.054 3.573.544 3.573-.01 3.573-.597 3.572.651 3.572-.684 3.574.69 3.58-.343 3.578.291 1.695 1.685.561 3.57-.157 3.57-.399 3.569.307 3.569-.032 3.57.045 3.577.236 3.576zM722.942 209.855l-3.57-.06-3.57.503-3.57-.592-3.57.28-3.57.141-3.567-.195-3.57.338-3.566-.03-3.57-.008-3.569-.404-3.572.146-3.57.065-3.57-.329-3.574.196-3.573-.252-3.573-.109-3.572.302-3.572.348-3.574-.44-3.579-.144-3.579.121-2.27-1.82.464-3.57-.007-3.57-.34-3.569.34-3.569.01-3.57-.262-3.576-.12-3.576 2.185-1.92 3.57.035 3.57-.283 3.57.53 3.57-.2 3.571-.097 3.566-.047 3.57.282 3.566-.078 3.571-.478 3.568.151 3.572.104 3.57-.169 3.571.318 3.573-.022 3.573.035 3.573.1 3.572-.38 3.572.103 3.574.258 3.58-.042 3.578-.182 2.197 1.982-.249 3.57-.225 3.57-.096 3.568.654 3.57-.055 3.57-.543 3.576.01 3.576zM636.942 209.976l-3.57.07-3.57.095-3.57-.498-3.57.275-3.57.123-3.567.177-3.57-.414-3.566.434-3.57-.459-3.569.081-3.572.384-3.57-.413-3.57-.066-3.574.09-3.573-.06-3.573.503-3.572-.593-3.572.28-3.574.142-3.579-.195-3.579.338-2.327-2.358.007-3.57.403-3.57-.145-3.569-.066-3.569.33-3.57-.196-3.576.252-3.576 1.742-1.634 3.57-.302 3.57-.347 3.57.44 3.57.143 3.571-.12 3.566-.452 3.57.465 3.566-.006 3.571-.34 3.568.34 3.572.01 3.57-.263 3.571-.12 3.573.265 3.573.036 3.573-.283 3.572.53 3.572-.2 3.574-.097 3.58-.047 3.578.282 1.777 1.7.48 3.57-.152 3.57-.104 3.568.17 3.57-.32 3.57.023 3.576-.036 3.576zM550.942 210.276l-3.57-.36-3.57-.277-3.57-.03-3.57.695-3.57-.103-3.567-.567-3.57.534-3.566.08-3.57.028-3.569-.367-3.572-.368-3.57.094-3.57.665-3.574-.323-3.573.07-3.573.095-3.572-.5-3.572.277-3.574.123-3.579.177-3.579-.414-2.327-1.893.46-3.57-.08-3.57-.385-3.568.413-3.57.066-3.57-.09-3.576.061-3.576 1.882-2.386 3.57.592 3.57-.28 3.57-.141 3.57.195 3.571-.338 3.566.03 3.57.008 3.566.403 3.571-.145 3.568-.065 3.572.329 3.57-.196 3.571.252 3.573.109 3.573-.302 3.573-.348 3.572.44 3.572.144 3.574-.121 3.58-.451 3.578.465 1.813 1.806.34 3.57-.34 3.57-.009 3.569.261 3.569.121 3.57-.265 3.576-.036 3.576zM464.942 209.769l-3.57.464-3.57.022-3.57-.23-3.57-.248-3.57.137-3.567.156-3.57-.133-3.566.35-3.57-.378-3.569-.269-3.572.266-3.57.199-3.57-.397-3.574.568-3.573-.36-3.573-.277-3.572-.029-3.572.694-3.574-.103-3.579-.567-3.579.534-2.336-2.256-.028-3.57.367-3.57.37-3.568-.096-3.57-.665-3.57.324-3.576-.07-3.576 2.134-2.229 3.57.498 3.57-.276 3.57-.122 3.57-.178 3.571.414 3.566-.434 3.57.459 3.566-.08 3.571-.384 3.568.413 3.572.066 3.57-.09 3.571.061 3.573-.504 3.573.592 3.573-.279 3.572-.142 3.572.195 3.574-.338 3.58.031 3.578.007 1.917 2.32.145 3.57.066 3.57-.33 3.569.196 3.569-.252 3.57-.109 3.576.303 3.576zM378.942 210.037l-3.57-.327-3.57.566-3.57-.098-3.57-.472-3.57.321-3.567-.348-3.57.384-3.566-.169-3.57.324-3.569-.565-3.572.4-3.57-.474-3.57.167-3.574.023-3.573.464-3.573.022-3.572-.23-3.572-.248-3.574.136-3.579.157-3.579-.134-2.375-2.024.378-3.57.27-3.57-.267-3.569-.199-3.569.397-3.57-.568-3.576.36-3.576 2.004-1.727 3.57.03 3.57-.695 3.57.103 3.57.567 3.571-.534 3.566-.08 3.57-.028 3.566.367 3.571.37 3.568-.096 3.572-.665 3.57.324 3.571-.07 3.573-.096 3.573.5 3.573-.277 3.572-.123 3.572-.177 3.574.414 3.58-.434 3.578.46 1.948 1.867.384 3.57-.413 3.57-.066 3.568.09 3.57-.06 3.57.503 3.576-.592 3.576zM292.942 209.673l-3.57-.006-3.57.099-3.57-.221-3.57.06-3.57.12-3.567.259-3.57.29-3.566-.343-3.57.107-3.569-.342-3.572.04-3.57.358-3.57-.293-3.574.236-3.573-.327-3.573.566-3.572-.098-3.572-.472-3.574.32-3.579-.347-3.579.385-1.982-2.152-.324-3.57.565-3.57-.4-3.568.474-3.57-.168-3.57-.022-3.576-.464-3.576 2.321-2.342 3.57.23 3.57.247 3.57-.136 3.57-.157 3.571.134 3.566-.351 3.57.378 3.566.27 3.571-.266 3.568-.2 3.572.397 3.57-.567 3.571.359 3.573.278 3.573.029 3.573-.694 3.572.103 3.572.566 3.574-.533 3.58-.081 3.578-.027 1.997 2.363-.369 3.57.095 3.57.665 3.569-.324 3.569.071 3.57.094 3.576-.498 3.576zM206.942 209.805l-3.57-.264-3.57.412-3.57-.11-3.57.302-3.57-.535-3.567.535-3.57-.077-3.566.206-3.57-.449-3.569-.027-3.572.048-3.57.272-3.57-.28-3.574-.165-3.573-.007-3.573.099-3.572-.22-3.572.06-3.574.121-3.579.257-3.579.292-2.019-2.363-.107-3.57.343-3.57-.042-3.568-.356-3.57.292-3.57-.236-3.576.327-3.576 1.798-2.364 3.57.098 3.57.472 3.57-.321 3.57.348 3.571-.384 3.566.169 3.57-.324 3.566.565 3.571-.399 3.568.473 3.572-.168 3.57-.022 3.571-.464 3.573-.022 3.573.23 3.573.248 3.572-.136 3.572-.157 3.574.133 3.58-.35 3.578.378 1.728 1.997.266 3.57.2 3.57-.398 3.569.568 3.569-.36 3.57-.277 3.576-.029 3.576z"/>
        <path fill="#FAECD1" d="M120.942 210.063l-3.57.055-3.57-.139-3.57-.244-3.57.33-3.57-.542-3.567.54-3.57-.088-3.566.163-3.57-.224-3.569.267-3.572.072-3.57-.563-3.57.37-3.574-.255-3.573-.264-3.573.412-3.572-.11-3.572.301-3.574-.534-3.579.535-3.579-.077-2.362-2.156.45-3.57.026-3.57-.048-3.569-.272-3.569.28-3.57.165-3.576.007-3.576 1.754-1.854 3.57.221 3.57-.06 3.57-.12 3.57-.259 3.571-.29 3.566.343 3.57-.107 3.566.343 3.571-.042 3.568-.357 3.572.293 3.57-.236 3.571.327 3.573-.566 3.573.098 3.573.472 3.572-.32 3.572.347 3.574-.384 3.58.17 3.578-.325 1.741 2.306.4 3.57-.474 3.57.168 3.568.022 3.57.464 3.57.022 3.576-.23 3.576z"/>
        <path fill="#FFF5EB" d="M851.942 173.552l-3.57.583-3.57.157-3.57-.611-3.57.241-3.57.123-3.567-.263-3.57.433-3.566-.156-3.57.192-3.569-.157-3.572-.428-3.57.346-3.57-.151-3.574.039-3.573-.094-3.573.046-3.572-.123-3.572.047-3.574.093-3.579-.12-3.579.282-2.234-2.119.405-3.57-.51-3.57.351-3.568.18-3.57-.43-3.57.237-3.576-.23-3.576 2.231-1.787 3.57-.563 3.57.586 3.57-.49 3.57.527 3.571-.172 3.566-.316 3.57.526 3.566-.119 3.571-.17 3.568-.325 3.572.48 3.57-.32 3.571.027 3.573-.122 3.573-.046 3.573.257 3.572.048 3.572.192 3.574-.54 3.58.719 3.578-.572 2.188 2.18-.018 3.57-.403 3.57.484 3.569-.102 3.569-.295 3.57.471 3.576-.194 3.576zM765.942 173.583l-3.57.316-3.57-.251-3.57.462-3.57-.155-3.57.351-3.567-.444-3.57.162-3.566-.097-3.57.37-3.569-.403-3.572.025-3.57.267-3.57-.028-3.574-.606-3.573.584-3.573.156-3.572-.612-3.572.243-3.574.123-3.579-.264-3.579.433-2.147-2.303-.192-3.57.157-3.57.428-3.569-.346-3.569.151-3.57-.039-3.576.094-3.576 1.894-1.94 3.57.123 3.57-.047 3.57-.093 3.57.12 3.571-.281 3.566-.115 3.57.404 3.566-.512 3.571.353 3.568.18 3.572-.431 3.57.238 3.571-.23 3.573.444 3.573-.564 3.573.587 3.572-.49 3.572.527 3.574-.173 3.58-.315 3.578.525 1.808 1.69.17 3.57.325 3.57-.48 3.569.32 3.569-.026 3.57.122 3.577.045 3.576zM679.942 174.216l-3.57-.202-3.57.038-3.57-.275-3.57-.041-3.57.242-3.567.119-3.57-.274-3.566.143-3.57.294-3.569-.566-3.572.521-3.57-.435-3.57.428-3.574-.626-3.573.317-3.573-.252-3.572.463-3.572-.154-3.574.351-3.579-.445-3.579.163-2.014-2.113-.37-3.57.402-3.57-.025-3.568-.268-3.57.03-3.57.605-3.576-.583-3.576 2.223-2.38 3.57.611 3.57-.241 3.57-.123 3.57.263 3.571-.433 3.566.156 3.57-.192 3.566.157 3.571.428 3.568-.346 3.572.151 3.57-.039 3.571.094 3.573-.045 3.573.122 3.573-.047 3.572-.093 3.572.12 3.574-.282 3.58-.115 3.578.405 2.34 1.829-.352 3.57-.18 3.57.431 3.569-.238 3.569.23 3.57-.444 3.576.564 3.576zM593.942 174.18l-3.57-.334-3.57.053-3.57.022-3.57.042-3.57-.091-3.567.435-3.57-.208-3.566-.388-3.57.275-3.569-.426-3.572.684-3.57-.343-3.57.042-3.574.273-3.573-.202-3.573.039-3.572-.275-3.572-.042-3.574.243-3.579.118-3.579-.274-2.053-1.91-.295-3.57.566-3.57-.52-3.57.434-3.568-.428-3.571.626-3.575-.317-3.576 1.987-1.736 3.57-.462 3.57.154 3.57-.351 3.57.444 3.571-.162 3.566.098 3.57-.371 3.566.403 3.571-.025 3.568-.267 3.572.028 3.57.607 3.571-.584 3.573-.157 3.573.612 3.573-.242 3.572-.123 3.572.264 3.574-.434 3.58.157 3.578-.192 2.182 2.339-.428 3.569.346 3.57-.15 3.569.038 3.569-.094 3.57.046 3.577-.123 3.576zM507.942 174.217l-3.57-.026-3.57-.17-3.57.276-3.57-.12-3.57.019-3.567-.167-3.57-.326-3.566.476-3.57-.642-3.569.217-3.572.516-3.57-.292-3.57-.42-3.574.622-3.573-.334-3.573.052-3.572.022-3.572.042-3.574-.09-3.579.434-3.579-.207-1.799-2.187-.275-3.57.427-3.57-.684-3.568.343-3.57-.043-3.57-.273-3.576.202-3.576 2.102-2.14 3.57.275 3.57.04 3.57-.241 3.57-.12 3.571.275 3.566-.142 3.57-.295 3.566.566 3.571-.521 3.568.435 3.572-.428 3.57.626 3.571-.317 3.573.252 3.573-.463 3.573.155 3.572-.351 3.572.444 3.574-.162 3.58.098 3.578-.371 1.982 2.385.025 3.57.268 3.57-.029 3.569-.606 3.569.583 3.57.157 3.576-.61 3.576zM421.942 173.846l-3.57.022-3.57.027-3.57-.299-3.57.431-3.57-.302-3.567.235-3.57.28-3.566-.505-3.57.172-3.569.261-3.572-.124-3.57-.158-3.57.046-3.574.285-3.573-.026-3.573-.169-3.572.275-3.572-.12-3.574.018-3.579-.166-3.579-.326-2.266-1.791.641-3.57-.217-3.57-.516-3.568.292-3.57.42-3.57-.62-3.576.332-3.576 1.934-1.986 3.57-.022 3.57-.042 3.57.09 3.57-.434 3.571.207 3.566.388 3.57-.275 3.566.427 3.571-.684 3.568.343 3.572-.043 3.57-.273 3.571.202 3.573-.038 3.573.275 3.573.041 3.572-.242 3.572-.119 3.574.274 3.58-.142 3.578-.295 1.782 2.348.521 3.57-.435 3.57.428 3.569-.626 3.569.317 3.57-.252 3.576.463 3.576zM335.942 173.552l-3.57.72-3.57-.512-3.57-.116-3.57.441-3.57.06-3.567-.495-3.57.654-3.566-.636-3.57.544-3.569-.175-3.572-.112-3.57-.21-3.57.27-3.574-.139-3.573.022-3.573.027-3.572-.3-3.572.432-3.574-.303-3.579.236-3.579.28-1.823-2.328-.172-3.57-.26-3.57.123-3.569.158-3.569-.046-3.57-.285-3.576.026-3.576 2.28-2.11 3.57-.275 3.57.12 3.57-.019 3.57.167 3.57.326 3.566-.476 3.57.642 3.566-.217 3.571-.516 3.568.291 3.572.42 3.57-.62 3.571.333 3.573-.053 3.573-.022 3.573-.04 3.572.09 3.572-.435 3.574.207 3.58.388 3.578-.275 1.647 2.074.684 3.57-.343 3.57.043 3.568.273 3.57-.202 3.57.038 3.576-.275 3.576zM249.942 174.251l-3.57-.477-3.57.377-3.57-.45-3.57-.09-3.57.089-3.567.349-3.57.056-3.566-.155-3.57.136-3.569-.056-3.572-.409-3.57.328-3.57.172-3.574-.569-3.573.72-3.573-.511-3.572-.117-3.572.441-3.574.06-3.579-.496-3.579.655-1.756-2.392-.544-3.57.175-3.57.112-3.569.21-3.569-.27-3.57.14-3.576-.023-3.576 1.956-1.983 3.57.3 3.57-.433 3.57.304 3.57-.236 3.571-.28 3.566.505 3.57-.172 3.566-.26 3.571.123 3.568.157 3.572-.044 3.57-.286 3.571.025 3.573.17 3.573-.275 3.573.12 3.572-.018 3.572.167 3.574.326 3.58-.477 3.578.641 1.842 1.626.516 3.57-.292 3.57-.419 3.569.62 3.569-.333 3.57.052 3.577.022 3.576z"/>
        <path fill="#FAECD2" d="M163.942 174.046l-3.57-.5-3.57-.005-3.57.597-3.57-.597-3.57.632-3.567-.116-3.57.102-3.566.013-3.57-.518-3.569.066-3.572.008-3.57.37-3.57-.183-3.574.336-3.573-.477-3.573.377-3.572-.45-3.572-.09-3.574.088-3.579.35-3.579.056-2.037-2.193-.137-3.57.057-3.57.408-3.569-.329-3.569-.17-3.57.568-3.576-.72-3.576 2.36-1.848 3.57.115 3.57-.44 3.57-.06 3.57.495 3.571-.654 3.566.636 3.57-.544 3.566.174 3.571.113 3.568.21 3.572-.27 3.57.14 3.571-.024 3.573-.026 3.573.3 3.573-.433 3.572.303 3.572-.235 3.574-.28 3.58.505 3.578-.173 2.256 1.996-.124 3.57-.158 3.57.046 3.568.285 3.57-.026 3.57-.169 3.576.275 3.576zM808.942 138.265l-3.57.035-3.57-.25-3.57-.183-3.57.16-3.57.096-3.567-.536-3.57.627-3.566-.132-3.57-.352-3.569.01-3.572.1-3.57.057-3.57.042-3.574.248-3.573-.064-3.573-.081-3.572.254-3.572-.685-3.574.077-3.579-.05-3.579.188-2.324-1.914.047-3.57.485-3.57-.02-3.568-.465-3.57.143-3.57.36-3.576-.233-3.576 2.007-1.99 3.57.003 3.57-.226 3.57.144 3.57-.165 3.571.509 3.566.088 3.57-.737 3.566.556 3.571.045 3.568-.437 3.572.454 3.57-.032 3.571-.134 3.573-.02 3.573.159 3.573-.247 3.572.32 3.572-.52 3.574.188 3.58.188 3.578-.087 2.216 1.94-.117 3.57.218 3.57-.43 3.57.498 3.569-.759 3.57.481 3.576-.083 3.576z"/>
        <path fill="#FFF5EB" d="M722.942 137.784l-3.57.377-3.57-.405-3.57.24-3.57.083-3.57-.477-3.567.049-3.57-.026-3.566.377-3.57-.155-3.569.434-3.572-.358-3.57-.083-3.57.33-3.574.095-3.573.035-3.573-.25-3.572-.183-3.572.16-3.574.096-3.579-.536-3.579.627-2.17-2.302.352-3.57-.01-3.57-.1-3.568-.057-3.57-.042-3.57-.248-3.576.064-3.576 2.211-2.13 3.57-.253 3.57.684 3.57-.077 3.57.05 3.571-.187 3.566-.411 3.57.047 3.566.485 3.571-.02 3.568-.465 3.572.143 3.57.36 3.571-.232 3.573.016 3.573.003 3.573-.226 3.572.144 3.572-.165 3.574.509 3.58.087 3.578-.736 1.818 2.374-.045 3.57.438 3.57-.454 3.569.032 3.569.134 3.57.02 3.576-.16 3.576zM636.942 137.932l-3.57.293-3.57-.163-3.57-.237-3.57.16-3.57-.03-3.567.032-3.57-.403-3.566.204-3.57-.104-3.569.452-3.572-.51-3.57.226-3.57.2-3.574-.268-3.573.378-3.573-.406-3.572.24-3.572.083-3.574-.477-3.579.049-3.579-.026-2.09-1.713.155-3.57-.434-3.57.358-3.568.083-3.57-.33-3.57-.095-3.576-.035-3.576 2.388-2.14 3.57.186 3.57-.161 3.57-.096 3.57.536 3.571-.627 3.566.133 3.57.352 3.566-.011 3.571-.101 3.568-.056 3.572-.041 3.57-.248 3.571.064 3.573.08 3.573-.253 3.573.684 3.572-.077 3.572.05 3.574-.187 3.58-.41 3.578.046 1.792 2.277.02 3.57.465 3.57-.143 3.569-.36 3.569.233 3.57-.017 3.576-.003 3.576zM550.942 137.771l-3.57.168-3.57-.125-3.57.383-3.57-.668-3.57.202-3.567.246-3.57.179-3.566-.024-3.57-.083-3.569-.043-3.572.159-3.57.007-3.57-.377-3.574.137-3.573.293-3.573-.164-3.572-.236-3.572.159-3.574-.028-3.579.03-3.579-.403-1.875-1.671.103-3.57-.452-3.57.511-3.568-.227-3.57-.199-3.57.267-3.576-.377-3.576 2.25-1.844 3.57-.24 3.57-.083 3.57.477 3.57-.048 3.57.025 3.566-.377 3.57.155 3.566-.434 3.571.358 3.568.083 3.572-.33 3.57-.095 3.571-.035 3.573.249 3.573.184 3.573-.16 3.572-.096 3.572.536 3.574-.627 3.58.132 3.578.352 1.828 1.818.101 3.57.056 3.57.042 3.569.248 3.569-.064 3.57-.08 3.576.253 3.576zM464.942 138.063l-3.57.167-3.57-.646-3.57.08-3.57.128-3.57.35-3.567-.013-3.57.008-3.566-.51-3.57.507-3.569-.537-3.572.692-3.57-.212-3.57.22-3.574-.526-3.573.168-3.573-.125-3.572.383-3.572-.668-3.574.202-3.579.246-3.579.18-2.22-2.245.083-3.57.043-3.57-.159-3.569-.007-3.569.377-3.57-.137-3.576-.293-3.576 2.313-2.15 3.57.237 3.57-.159 3.57.028 3.57-.03 3.571.403 3.566-.204 3.57.103 3.566-.452 3.571.51 3.568-.226 3.572-.199 3.57.267 3.571-.377 3.573.405 3.573-.24 3.573-.083 3.572.477 3.572-.048 3.574.025 3.58-.377 3.578.155 2.37 1.935-.359 3.57-.083 3.57.33 3.568.095 3.57.035 3.57-.249 3.576-.184 3.576zM378.942 138.15l-3.57-.428-3.57.074-3.57.366-3.57-.564-3.57-.02-3.567-.015-3.57.249-3.566.268-3.57-.245-3.569.17-3.572-.12-3.57.158-3.57-.401-3.574.42-3.573.168-3.573-.646-3.572.08-3.572.128-3.574.35-3.579-.012-3.579.008-1.715-2.226-.508-3.57.538-3.57-.693-3.568.213-3.57-.22-3.57.526-3.576-.168-3.576 2.027-1.902 3.57-.382 3.57.667 3.57-.202 3.57-.246 3.571-.18 3.566.026 3.57.083 3.566.043 3.571-.16 3.568-.006 3.572.376 3.57-.136 3.571-.294 3.573.164 3.573.236 3.573-.16 3.572.029 3.572-.03 3.574.403 3.58-.204 3.578.104 2.224 1.77-.51 3.57.226 3.57.2 3.57-.268 3.569.377 3.57-.405 3.576.24 3.576zM292.942 138.104l-3.57-.12-3.57-.143-3.57-.1h-3.57l-3.57.36-3.567-.429-3.57.627-3.566-.179-3.57-.58-3.569.7-3.572-.273-3.57.226-3.57.055-3.574-.098-3.573-.429-3.573.074-3.572.367-3.572-.565-3.574-.019-3.579-.016-3.579.25-2.168-1.9.246-3.57-.172-3.57.122-3.569-.159-3.569.401-3.57-.42-3.576-.168-3.576 2.318-1.673 3.57-.08 3.57-.127 3.57-.35 3.57.012 3.571-.008 3.566.511 3.57-.508 3.566.538 3.571-.693 3.568.213 3.572-.22 3.57.526 3.571-.168 3.573.125 3.573-.383 3.573.668 3.572-.202 3.572-.247 3.574-.178 3.58.024 3.578.083 2.094 2.137.16 3.57.006 3.57-.377 3.568.137 3.57.293 3.57-.164 3.576-.236 3.576zM206.942 137.554l-3.57.066-3.57.64-3.57-.563-3.57.169-3.57.16-3.567.102-3.57-.325-3.566.322-3.57-.1-3.569.058-3.572-.217-3.57-.087-3.57-.251-3.574.577-3.573-.121-3.573-.143-3.572-.101-3.572.002-3.574.359-3.579-.43-3.579.629-2.209-2.388.581-3.57-.699-3.57.272-3.568-.227-3.57-.054-3.57.097-3.576.43-3.576 1.81-1.883 3.57-.367 3.57.565 3.57.018 3.57.017 3.57-.25 3.566-.267 3.57.245 3.566-.171 3.571.12 3.568-.157 3.572.4 3.57-.421 3.571-.167 3.573.646 3.573-.08 3.573-.128 3.572-.35 3.572.013 3.574-.008 3.58.51 3.578-.507 1.685 2.222.693 3.57-.213 3.57.22 3.569-.526 3.569.168 3.57-.125 3.576.383 3.576zM120.942 138.103l-3.57-.375-3.57-.161-3.57.481-3.57.077-3.57-.601-3.567.638-3.57-.103-3.566-.529-3.57.07-3.569.215-3.572.447-3.57-.37-3.57.214-3.574-.552-3.573.066-3.573.641-3.572-.564-3.572.168-3.574.161-3.579.102-3.579-.326-2.212-1.89.1-3.57-.059-3.57.217-3.568.087-3.57.252-3.57-.577-3.576.12-3.576 2.072-1.929 3.57.101 3.57-.001 3.57-.36 3.57.429 3.571-.628 3.566.179 3.57.581 3.566-.699 3.571.272 3.568-.227 3.572-.054 3.57.097 3.571.429 3.573-.073 3.573-.367 3.573.564 3.572.019 3.572.017 3.574-.25 3.58-.268 3.578.246 2.094 1.922-.122 3.57.16 3.57-.402 3.569.421 3.569.167 3.57-.646 3.576.08 3.576z"/>
        <path fill="#FAECD1" d="M851.942 102.146l-3.57-.163-3.57-.035-3.57.05-3.57-.323-3.57-.045-3.567.1-3.57-.158-3.566-.05-3.57.234-3.569.084-3.572.406-3.57.026-3.57-.467-3.574.061-3.573-.254-3.573.385-3.572-.107-3.572-.272-3.574.363-3.579.112-3.579-.48-1.823-1.701-.06-3.57.094-3.57-.55-3.568.193-3.57-.07-3.57.192-3.576.056-3.576 1.968-1.921 3.57-.401 3.57.142 3.57.291 3.57-.463 3.571.351 3.566-.058 3.57-.049 3.566-.054 3.571-.008 3.568.135 3.572.193 3.57.177 3.571.032 3.573-.756 3.573.63 3.573-.307 3.572.102 3.572-.242 3.574.381 3.58-.25 3.578.131 1.731 1.944-.012 3.57.51 3.57-.106 3.568.055 3.57-.527 3.57-.004 3.576.106 3.576z"/>
        <path fill="#FFF5EB" d="M765.942 102.03l-3.57.244-3.57-.069-3.57-.162-3.57-.01-3.57.176-3.567-.068-3.57-.247-3.566.12-3.57-.476-3.569.435-3.572.083-3.57.077-3.57.165-3.574-.152-3.573-.163-3.573-.035-3.572.05-3.572-.323-3.574-.045-3.579.1-3.579-.158-1.609-1.66-.235-3.57-.084-3.57-.406-3.569-.026-3.569.467-3.57-.06-3.576.253-3.576 1.7-2.085 3.57.107 3.57.272 3.57-.363 3.57-.112 3.571.48 3.566-.122 3.57-.06 3.566.094 3.571-.55 3.568.193 3.572-.07 3.57.192 3.571.056 3.573.047 3.573-.4 3.573.141 3.572.291 3.572-.463 3.574.351 3.58-.058 3.578-.049 2.162 2.108.008 3.57-.135 3.57-.193 3.568-.177 3.57-.032 3.57.756 3.576-.63 3.576z"/>
        <path fill="#FAECD2" d="M679.942 101.758l-3.57.515-3.57.002-3.57-.637-3.57.353-3.57-.4-3.567.676-3.57-.32-3.566.121-3.57-.123-3.569.256-3.572-.41-3.57-.199-3.57.183-3.574.254-3.573.245-3.573-.069-3.572-.162-3.572-.01-3.574.176-3.579-.068-3.579-.247-2.1-1.982.473-3.57-.434-3.57-.083-3.569-.077-3.569-.165-3.57.152-3.576.163-3.576 2.071-2.036 3.57-.05 3.57.323 3.57.045 3.57-.1 3.571.158 3.566.05 3.57-.234 3.566-.084 3.571-.406 3.568-.026 3.572.467 3.57-.06 3.571.253 3.573-.385 3.573.107 3.573.272 3.572-.363 3.572-.112 3.574.48 3.58-.122 3.578-.06 1.79 1.883.55 3.57-.194 3.57.071 3.568-.193 3.57-.056 3.57-.047 3.576.401 3.576z"/>
        <path fill="#FFF5EB" d="M593.942 102.051l-3.57-.11-3.57.3-3.57-.53-3.57.27-3.57.1-3.567.215-3.57-.532-3.566.476-3.57-.056-3.569-.606-3.572.584-3.57-.409-3.57.061-3.574-.056-3.573.514-3.573.002-3.572-.636-3.572.353-3.574-.4-3.579.676-3.579-.32-2.156-2.035.123-3.57-.256-3.57.41-3.569.2-3.569-.184-3.57-.254-3.576-.245-3.576 2.362-2.293 3.57.161 3.57.012 3.57-.178 3.57.07 3.571.246 3.566-.119 3.57.474 3.566-.435 3.571-.082 3.568-.077 3.572-.165 3.57.152 3.571.163 3.573.035 3.573-.05 3.573.322 3.572.046 3.572-.1 3.574.157 3.58.051 3.578-.234 1.928 1.844.406 3.57.026 3.57-.467 3.568.061 3.57-.254 3.57.385 3.576-.107 3.576zM507.942 101.558l-3.57.242-3.57.296-3.57-.235-3.57.335-3.57-.306-3.567-.154-3.57.43-3.566-.277-3.57.09-3.569-.34-3.572.528-3.57-.552-3.57.26-3.574.176-3.573-.11-3.573.3-3.572-.53-3.572.27-3.574.1-3.579.215-3.579-.532-2.328-1.852.056-3.57.606-3.57-.584-3.569.408-3.569-.06-3.57.056-3.576-.515-3.576 2.361-2.363 3.57.637 3.57-.353 3.57.4 3.57-.677 3.571.321 3.566-.12 3.57.121 3.566-.255 3.571.41 3.568.2 3.572-.185 3.57-.253 3.571-.246 3.573.07 3.573.161 3.573.012 3.572-.178 3.572.07 3.574.246 3.58-.119 3.578.474 2.061 1.627.083 3.57.077 3.57.165 3.568-.152 3.57-.163 3.57-.035 3.576.05 3.576z"/>
        <path fill="#FAECD2" d="M421.942 102.252l-3.57-.624-3.57.563-3.57-.29-3.57.256-3.57-.498-3.567.273-3.57-.082-3.566-.307-3.57.252-3.569.025-3.572.206-3.57-.027-3.57.14-3.574-.581-3.573.242-3.573.296-3.572-.234-3.572.335-3.574-.307-3.579-.154-3.579.429-1.977-2.253-.089-3.57.34-3.57-.529-3.568.551-3.57-.259-3.57-.176-3.576.11-3.576 2.03-2.328 3.57.529 3.57-.27 3.57-.101 3.57-.215 3.57.533 3.566-.476 3.57.056 3.566.606 3.571-.584 3.568.408 3.572-.061 3.57.057 3.571-.515 3.573-.002 3.573.637 3.573-.353 3.572.4 3.572-.676 3.574.32 3.58-.121 3.578.123 2.29 2.033-.41 3.57-.2 3.57.183 3.568.254 3.57.245 3.57-.069 3.576-.162 3.576z"/>
        <path fill="#FFF5EB" d="M335.942 102.302l-3.57-.246-3.57-.338-3.57.007-3.57.1-3.57-.099-3.567.026-3.57.546-3.566-.038h-3.57l-3.569-.534-3.572.32-3.57-.103-3.57-.377-3.574.686-3.573-.625-3.573.564-3.572-.29-3.572.255-3.574-.498-3.579.273-3.579-.082-1.63-1.937-.253-3.57-.025-3.57-.206-3.569.027-3.569-.14-3.57.581-3.576-.242-3.576 1.888-2.185 3.57.235 3.57-.335 3.57.307 3.57.154 3.571-.43 3.566.277 3.57-.089 3.566.34 3.571-.529 3.568.551 3.572-.26 3.57-.176 3.571.111 3.573-.3 3.573.53 3.573-.27 3.572-.1 3.572-.216 3.574.533 3.58-.477 3.578.057 1.666 2.272.584 3.57-.408 3.57.061 3.568-.057 3.57.515 3.57.002 3.576-.637 3.576zM249.942 102.005l-3.57.088-3.57-.185-3.57-.337-3.57.125-3.57.301-3.567.181-3.57-.224-3.566-.267-3.57.481-3.569-.26-3.572-.338-3.57.304-3.57.17-3.574.258-3.573-.246-3.573-.338-3.572.006-3.572.101-3.574-.099-3.579.026-3.579.546-2.348-2.386v-3.57l.534-3.57-.32-3.569.103-3.569.376-3.57-.685-3.576.624-3.576 1.716-2.28 3.57.29 3.57-.255 3.57.498 3.57-.273 3.571.082 3.566.307 3.57-.252 3.566-.025 3.571-.206 3.568.027 3.572-.14 3.57.58 3.571-.242 3.573-.296 3.573.235 3.573-.335 3.572.306 3.572.155 3.574-.43 3.58.277 3.578-.089 1.727 2.066.528 3.57-.55 3.57.258 3.568.176 3.57-.11 3.57.3 3.576-.53 3.576zM163.942 102.24l-3.57-.19-3.57-.225-3.57.324-3.57-.102-3.57-.241-3.567.096-3.57.124-3.566.279-3.57-.757-3.569.502-3.572-.425-3.57.035-3.57-.046-3.574.392-3.573.088-3.573-.185-3.572-.338-3.572.126-3.574.3-3.579.18-3.579-.223-1.775-2.042-.48-3.57.26-3.57.336-3.568-.303-3.57-.169-3.57-.259-3.576.246-3.576 2.144-1.807 3.57-.006 3.57-.101 3.57.1 3.57-.026 3.571-.546 3.566.038h3.57l3.566.534 3.571-.32 3.568.103 3.572.376 3.57-.685 3.571.625 3.573-.564 3.573.29 3.573-.255 3.572.498 3.572-.273 3.574.08 3.58.308 3.578-.251 1.908 1.882.206 3.57-.027 3.57.14 3.569-.58 3.569.241 3.57.296 3.576-.235 3.576zM77.942 101.532l-3.57.58-3.57.173-3.57-.127-3.57.09-3.57-.613-3.567.25-3.57.004-3.566-.013-3.57.3-3.569-.22-3.572-.06-3.57.044-3.57-.087-3.574.388-3.573-.19-3.573-.227-3.572.324-3.572-.1-3.574-.242-3.579.096-3.579.124L.55 99.912l.757-3.57-.502-3.57.425-3.569-.035-3.569.047-3.57-.392-3.576-.089-3.576 2.182-1.997 3.57.338 3.57-.126 3.57-.3 3.57-.18 3.571.222 3.566.267 3.57-.48 3.566.26 3.571.337 3.568-.303 3.572-.169 3.57-.26 3.571.247 3.573.337 3.573-.006 3.573-.1 3.572.098 3.572-.026 3.574-.546 3.58.04 3.578-.002 1.814 2.35.32 3.568-.103 3.57-.376 3.57.685 3.568-.624 3.571.563 3.576-.29 3.576zM808.942 65.981l-3.57-.205-3.57.061-3.57.127-3.57-.133-3.57.438-3.567-.086-3.57-.463-3.566.032-3.57.066-3.569.343-3.572-.033-3.57-.479-3.57.476-3.574-.281-3.573.263-3.573-.472-3.572.241-3.572-.235-3.574.445-3.579-.122-3.579-.093-2.159-1.959.35-3.57.144-3.57-.37-3.568.284-3.57-.048-3.57-.196-3.576.142-3.576 1.853-2.276 3.57-.04 3.57.596 3.57-.497 3.57.511 3.571-.329 3.566.269 3.57.146 3.566-.633 3.571.128 3.568-.181 3.572.243 3.57.029 3.571.232 3.573-.54 3.573.104 3.573.57 3.572.014 3.572-.151 3.574.178 3.58-.62 3.578.115 1.747 2.132.536 3.57.024 3.57.061 3.569-.604 3.569.05 3.57-.01 3.576-.106 3.576zM722.942 66.219l-3.57-.69-3.57.27-3.57.195-3.57.092-3.57-.38-3.567.214-3.57-.122-3.566.034-3.57.18-3.569.039-3.572.155-3.57-.2-3.57-.465-3.574.44-3.573-.205-3.573.06-3.572.128-3.572-.133-3.574.438-3.579-.086-3.579-.462-1.84-1.81-.066-3.568-.343-3.57.033-3.57.48-3.568-.477-3.571.281-3.576-.263-3.576 2.195-1.723 3.57-.24 3.57.235 3.57-.445 3.57.122 3.571.092 3.566-.2 3.57.35 3.566.144 3.571-.37 3.568.284 3.572-.048 3.57-.196 3.571.142 3.573-.423 3.573-.04 3.573.597 3.572-.497 3.572.51 3.574-.328 3.58.269 3.578.145 2.253 1.62-.128 3.57.181 3.57-.243 3.569-.029 3.569-.232 3.57.54 3.576-.104 3.576zM636.942 66.307l-3.57-.301-3.57-.211-3.57.327-3.57-.227-3.57.144-3.567-.052-3.57.002-3.566.28-3.57-.33-3.569.105-3.572.037-3.57.147-3.57-.205-3.574.196-3.573-.69-3.573.269-3.572.195-3.572.093-3.574-.38-3.579.214-3.579-.122-1.92-1.886-.179-3.57-.04-3.57-.155-3.568.2-3.57.465-3.57-.44-3.576.205-3.576 1.864-1.925 3.57-.126 3.57.132 3.57-.438 3.57.087 3.571.462 3.566-.032 3.57-.065 3.566-.344 3.571.033 3.568.479 3.572-.475 3.57.28 3.571-.263 3.573.472 3.573-.241 3.573.236 3.572-.446 3.572.123 3.574.092 3.58-.2 3.578.35 1.665 1.809.371 3.57-.285 3.57.05 3.569.194 3.569-.142 3.57.423 3.576.04 3.576z"/>
        <path fill="#FAECD2" d="M550.942 66.048l-3.57-.344-3.57-.068-3.57.11-3.57-.122-3.57.177-3.567.13-3.57.176-3.566-.207-3.57-.25-3.569-.116-3.572.38-3.57.002-3.57-.049-3.574.44-3.573-.3-3.573-.213-3.572.328-3.572-.228-3.574.145-3.579-.053-3.579.002-2.358-2.076.331-3.57-.105-3.57-.037-3.569-.147-3.569.205-3.57-.196-3.576.69-3.576 1.617-1.887 3.57-.195 3.57-.092 3.57.38 3.57-.214 3.571.122 3.566-.034 3.57-.18 3.566-.039 3.571-.155 3.568.2 3.572.465 3.57-.44 3.571.205 3.573-.06 3.573-.128 3.573.133 3.572-.438 3.572.086 3.574.462 3.58-.032 3.578-.065 2.25 1.906-.034 3.57-.479 3.57.476 3.568-.28 3.57.262 3.57-.472 3.576.241 3.576z"/>
        <path fill="#FFF5EB" d="M464.942 65.543l-3.57.692-3.57-.559-3.57.108-3.57.424-3.57-.33-3.567-.275-3.57-.049-3.566.561-3.57-.002-3.569-.268-3.572.098-3.57-.299-3.57.06-3.574.344-3.573-.344-3.573-.068-3.572.11-3.572-.122-3.574.177-3.579.13-3.579.176-1.989-2.195.251-3.57.116-3.57-.379-3.569-.003-3.569.05-3.57-.44-3.576.3-3.576 2.094-1.883 3.57-.327 3.57.227 3.57-.144 3.57.052 3.571-.002 3.566-.28 3.57.33 3.566-.105 3.571-.037 3.568-.147 3.572.205 3.57-.196 3.571.69 3.573-.27 3.573-.194 3.573-.093 3.572.38 3.572-.214 3.574.122 3.58-.034 3.578-.18 2.14 2.1.154 3.57-.2 3.57-.465 3.568.44 3.57-.205 3.57.061 3.576.127 3.576zM378.942 66.144l-3.57-.166-3.57.195-3.57-.31-3.57-.308-3.57.091-3.567-.008-3.57.555-3.566-.35-3.57-.183-3.569.112-3.572.201-3.57.261-3.57-.103-3.574-.588-3.573.691-3.573-.557-3.572.107-3.572.424-3.574-.33-3.579-.275-3.579-.048-2.203-1.643.001-3.57.27-3.57-.099-3.569.3-3.569-.06-3.57-.345-3.575.344-3.576 1.792-1.725 3.57-.11 3.57.122 3.57-.178 3.57-.13 3.571-.175 3.566.206 3.57.252 3.566.116 3.571-.38 3.568-.003 3.572.048 3.57-.439 3.571.3 3.573.212 3.573-.328 3.573.228 3.572-.145 3.572.053 3.574-.002 3.58-.282 3.578.333 2.132 2.026.037 3.57.147 3.57-.205 3.569.196 3.569-.69 3.57.27 3.577.194 3.575zM292.942 66.247l-3.57-.592-3.57.39-3.57-.241-3.57.408-3.57-.105-3.567-.352-3.57.008-3.566.54-3.57-.36-3.569.324-3.572-.667-3.57.359-3.57.135-3.574.05-3.573-.165-3.573.193-3.572-.31-3.572-.307-3.574.092-3.579-.008-3.579.555-1.93-2.282.182-3.57-.112-3.57-.2-3.568-.262-3.57.104-3.57.587-3.576-.692-3.576 2.323-1.764 3.57-.108 3.57-.424 3.57.33 3.57.275 3.571.049 3.566-.561 3.57.002 3.566.268 3.571-.098 3.568.299 3.572-.06 3.57-.344 3.571.344 3.573.068 3.573-.11 3.573.122 3.572-.177 3.572-.13 3.574-.176 3.58.207 3.578.25 1.622 1.738.38 3.57.002 3.57-.049 3.569.44 3.569-.3 3.57-.212 3.576.327 3.576zM206.942 65.96l-3.57-.129-3.57.157-3.57.106-3.57-.364-3.57.427-3.567-.573-3.57.455-3.566.052-3.57-.249-3.569.049-3.572-.064-3.57-.22-3.57.423-3.574.217-3.573-.592-3.573.389-3.572-.24-3.572.408-3.574-.105-3.579-.352-3.579.008-2.39-1.851.358-3.57-.322-3.57.666-3.568-.359-3.57-.135-3.57-.05-3.576.166-3.576 2.066-2.26 3.57.309 3.57.308 3.57-.091 3.57.008 3.571-.555 3.566.35 3.57.183 3.566-.112 3.571-.201 3.568-.261 3.572.104 3.57.587 3.571-.692 3.573.559 3.573-.109 3.573-.423 3.572.331 3.572.274 3.574.049 3.58-.561 3.578.002 1.933 2.201.098 3.57-.299 3.57.06 3.569.344 3.569-.344 3.57-.067 3.576.11 3.576zM679.942 29.806l-3.57.001-3.57.074-3.57-.15-3.57.454-3.57-.648-3.567.511-3.57-.03-3.566-.386-3.57.646-3.569-.544-3.572-.098-3.57.67-3.57-.162-3.574-.18-3.573.117-3.573-.4-3.572-.023-3.572.285-3.574-.384-3.579.136-3.579.092-2.348-1.875.662-3.57-.09-3.57.137-3.569-.688-3.569.605-3.57-.249-3.576-.25-3.576 2.221-1.93 3.57-.298 3.57.182 3.57.033 3.57.388 3.571-.17 3.566-.037 3.57-.325 3.566.252 3.571.28 3.568-.443 3.572-.218 3.57.075 3.571.167 3.573.046 3.573-.08 3.573.354 3.572-.413 3.572.114 3.574.296 3.58-.058 3.578-.332 1.857 2.117.118 3.57.161 3.57.006 3.568-.529 3.57.707 3.57-.524 3.576.155 3.576zM593.942 30.274l-3.57-.57-3.57-.107-3.57.7-3.57-.367-3.57.002-3.567-.21-3.57-.18-3.566.553-3.57-.405-3.569.233-3.572-.338-3.57.681-3.57-.033-3.574-.427-3.573.002-3.573.073-3.572-.15-3.572.454-3.574-.647-3.579.51-3.579-.031-1.72-2.104-.646-3.57.544-3.57.098-3.57-.67-3.569.162-3.57.18-3.575-.117-3.576 2.17-1.77 3.57.024 3.57-.287 3.57.384 3.57-.135 3.57-.091 3.566-.475 3.57.663 3.566-.09 3.571.138 3.568-.689 3.572.605 3.57-.248 3.571-.251 3.573.292 3.573-.3 3.573.183 3.572.033 3.572.389 3.574-.171 3.58-.036 3.578-.326 1.905 2.157-.28 3.57.443 3.57.218 3.569-.076 3.568-.166 3.572-.047 3.576.08 3.576z"/>
        <path fill="#FAECD1" d="M507.942 29.965l-3.57.301-3.57-.39-3.57.234-3.57-.218-3.57-.04-3.567.321-3.57-.182-3.566-.197-3.57.235-3.569.057-3.572-.217-3.57-.14-3.57-.1-3.574.645-3.573-.57-3.573-.107-3.572.7-3.572-.367-3.574.001-3.579-.208-3.579-.18-2.183-1.63.406-3.57-.234-3.57.34-3.57-.684-3.569.034-3.57.427-3.576-.002-3.576 1.896-1.97 3.57.151 3.57-.455 3.57.648 3.57-.51 3.571.031 3.566.384 3.57-.646 3.566.545 3.571.098 3.568-.67 3.572.161 3.57.181 3.571-.118 3.573.402 3.573.022 3.573-.285 3.572.384 3.572-.137 3.574-.09 3.58-.475 3.578.663 1.777 1.686-.138 3.57.688 3.57-.605 3.568.25 3.57.25 3.57-.292 3.576.298 3.576z"/>
        <path fill="#FFF5EB" d="M335.942 29.71l-3.57.573-3.57-.19-3.57-.148-3.57-.216-3.57.24-3.567-.119-3.57-.109-3.566-.101-3.57-.062-3.569.722-3.572-.129-3.57-.014-3.57.145-3.574-.145-3.573-.461-3.573-.095-3.572.673-3.572-.629-3.574-.113-3.579.111-3.579.589-1.79-2.32-.54-3.57.051-3.57.465-3.568.168-3.57-.218-3.57-.189-3.576-.3-3.576 2.353-1.964 3.57-.234 3.57.217 3.57.041 3.57-.322 3.571.183 3.566.196 3.57-.235 3.566-.056 3.571.217 3.568.141 3.572.099 3.57-.645 3.571.57 3.573.106 3.573-.699 3.573.367 3.572-.001 3.572.208 3.574.181 3.58-.553 3.578.406 2.011 1.777-.339 3.57.683 3.57-.034 3.569-.427 3.569.002 3.57.074 3.576-.15 3.576zM249.942 29.775l-3.57.103-3.57-.31-3.57.377-3.57-.306-3.57.475-3.567-.07-3.57-.23-3.566.199-3.57.14-3.569-.03-3.572-.255-3.57.199-3.57-.014-3.574-.343-3.573.573-3.573-.19-3.572-.147-3.572-.217-3.574.24-3.579-.12-3.579-.108-1.728-1.83.062-3.568-.722-3.57.13-3.57.013-3.57-.145-3.57.145-3.575.461-3.576 1.784-1.69 3.57-.671 3.57.628 3.57.113 3.57-.11 3.571-.59 3.566.529 3.57-.54 3.566.052 3.571.465 3.568.168 3.572-.217 3.57-.19 3.571-.301 3.573.39 3.573-.234 3.573.218 3.572.04L239.21.65l3.574.182 3.58.197 3.578-.235 2.174 2.117-.217 3.57-.14 3.57-.1 3.569.645 3.569-.57 3.57-.106 3.576.7 3.576z"/>
    </g>
</svg>
